<?xml version="1.0" encoding="utf-8"?>
<!-- Generator: Adobe Illustrator 15.1.0, SVG Export Plug-In . SVG Version: 6.00 Build 0)  -->
<!DOCTYPE svg PUBLIC "-//W3C//DTD SVG 1.1//EN" "http://www.w3.org/Graphics/SVG/1.1/DTD/svg11.dtd" [
	<!ENTITY ns_extend "http://ns.adobe.com/Extensibility/1.0/">
	<!ENTITY ns_ai "http://ns.adobe.com/AdobeIllustrator/10.0/">
	<!ENTITY ns_graphs "http://ns.adobe.com/Graphs/1.0/">
	<!ENTITY ns_vars "http://ns.adobe.com/Variables/1.0/">
	<!ENTITY ns_imrep "http://ns.adobe.com/ImageReplacement/1.0/">
	<!ENTITY ns_sfw "http://ns.adobe.com/SaveForWeb/1.0/">
	<!ENTITY ns_custom "http://ns.adobe.com/GenericCustomNamespace/1.0/">
	<!ENTITY ns_adobe_xpath "http://ns.adobe.com/XPath/1.0/">
]>
<svg version="1.1" id="Layer_1" xmlns:x="&ns_extend;" xmlns:i="&ns_ai;" xmlns:graph="&ns_graphs;"
	 xmlns="http://www.w3.org/2000/svg" xmlns:xlink="http://www.w3.org/1999/xlink" x="0px" y="0px" width="77px" height="69px"
	 viewBox="0 0 77 69" enable-background="new 0 0 77 69" xml:space="preserve">
<metadata>
	<sfw  xmlns="&ns_sfw;">
		<slices></slices>
		<sliceSourceBounds  y="-58.845" x="10.215" height="50.298" width="56.063" bottomLeftOrigin="true"></sliceSourceBounds>
	</sfw>
</metadata>
<g>
	<g>
		<path fill="#EC2224" d="M65.384,48.957l-21.43-37.115c-1.191-2.063-3.325-3.296-5.708-3.296c-2.384,0-4.518,1.232-5.709,3.296
			L11.108,48.957c-1.191,2.065-1.191,4.528,0,6.591c1.191,2.064,3.326,3.297,5.709,3.297h42.855c2.384,0,4.519-1.232,5.711-3.297
			C66.575,53.485,66.575,51.022,65.384,48.957z M62.538,53.906c-0.598,1.037-1.668,1.654-2.865,1.654H16.817
			c-1.196,0-2.267-0.617-2.865-1.654c-0.598-1.035-0.598-2.271,0-3.308l21.429-37.114c0.598-1.036,1.668-1.654,2.865-1.654
			c1.195,0,2.267,0.619,2.863,1.654l21.43,37.114C63.137,51.636,63.137,52.871,62.538,53.906z"/>
	</g>
</g>
<g>
	<g>
		<rect x="36.603" y="24.938" fill="#EC2224" width="3.286" height="16.423"/>
	</g>
</g>
<g>
	<g>
		<path fill="#EC2224" d="M38.246,44.643c-1.208,0-2.19,0.983-2.19,2.191c0,1.207,0.982,2.189,2.19,2.189
			c1.207,0,2.189-0.982,2.189-2.189C40.436,45.626,39.453,44.643,38.246,44.643z"/>
	</g>
</g>
</svg>
