<?xml version="1.0" encoding="utf-8"?>
<!-- Generator: Adobe Illustrator 15.1.0, SVG Export Plug-In . SVG Version: 6.00 Build 0)  -->
<!DOCTYPE svg PUBLIC "-//W3C//DTD SVG 1.1//EN" "http://www.w3.org/Graphics/SVG/1.1/DTD/svg11.dtd" [
	<!ENTITY ns_extend "http://ns.adobe.com/Extensibility/1.0/">
	<!ENTITY ns_ai "http://ns.adobe.com/AdobeIllustrator/10.0/">
	<!ENTITY ns_graphs "http://ns.adobe.com/Graphs/1.0/">
	<!ENTITY ns_vars "http://ns.adobe.com/Variables/1.0/">
	<!ENTITY ns_imrep "http://ns.adobe.com/ImageReplacement/1.0/">
	<!ENTITY ns_sfw "http://ns.adobe.com/SaveForWeb/1.0/">
	<!ENTITY ns_custom "http://ns.adobe.com/GenericCustomNamespace/1.0/">
	<!ENTITY ns_adobe_xpath "http://ns.adobe.com/XPath/1.0/">
]>
<svg version="1.1" id="Layer_1" xmlns:x="&ns_extend;" xmlns:i="&ns_ai;" xmlns:graph="&ns_graphs;"
	 xmlns="http://www.w3.org/2000/svg" xmlns:xlink="http://www.w3.org/1999/xlink" x="0px" y="0px" width="77px" height="69px"
	 viewBox="0 0 77 69" enable-background="new 0 0 77 69" xml:space="preserve">
<metadata>
	<sfw  xmlns="&ns_sfw;">
		<slices></slices>
		<sliceSourceBounds  y="-68.494" x="10.896" height="67.987" width="54.391" bottomLeftOrigin="true"></sliceSourceBounds>
	</sfw>
</metadata>
<g>
	<g>
		<g>
			<path fill="#85C049" d="M26.607,41.723c0.799,0.626,1.275,1.577,1.296,2.592l0.001,2.656c0.007,1.436,0.915,2.712,2.268,3.189
				l0.001,1.342c0.003,0.839,0.319,1.646,0.886,2.266c-1.178,1.282-1.177,3.253,0.003,4.532c-0.334,0.365-0.583,0.8-0.729,1.272
				c-0.551,1.776,0.441,3.662,2.216,4.214c0.401,2.374,2.262,4.231,4.636,4.629c3.075,0.516,5.987-1.561,6.503-4.636
				c0.47-0.148,0.902-0.398,1.267-0.731c1.369-1.257,1.459-3.387,0.202-4.756c1.18-1.282,1.178-3.253-0.002-4.532
				c0.565-0.621,0.88-1.429,0.882-2.268l-0.001-1.341c1.354-0.48,2.26-1.758,2.265-3.193l-0.002-2.525
				c-0.017-1.02,0.424-1.992,1.201-2.651c4.295-3.458,6.771-8.691,6.722-14.205c-0.171-9.584-7.692-17.421-17.262-17.984
				c-0.297-0.014-0.596-0.021-0.892-0.021c-4.658-0.01-9.137,1.788-12.494,5.017H25.57c-0.539,0.514-1.046,1.062-1.519,1.639
				C17.717,23.973,18.861,35.388,26.607,41.723z M34.908,63.963l6.411-0.004c-0.482,1.357-1.765,2.267-3.205,2.27
				C36.674,66.228,35.391,65.319,34.908,63.963z M32.446,60.565c0-0.626,0.506-1.133,1.132-1.134l9.064-0.006
				c0.625,0,1.135,0.508,1.135,1.133c0,0.626-0.508,1.134-1.133,1.134l-9.065,0.006C32.953,61.699,32.446,61.191,32.446,60.565z
				 M32.443,56.033c0-0.627,0.506-1.134,1.133-1.134l9.064-0.006c0.625-0.001,1.135,0.507,1.135,1.133s-0.508,1.133-1.133,1.134
				l-9.065,0.006C32.95,57.166,32.443,56.658,32.443,56.033z M32.439,50.367l11.331-0.007l0.001,1.133
				c0,0.627-0.508,1.134-1.133,1.134l-9.064,0.006c-0.626,0.001-1.134-0.507-1.134-1.133L32.439,50.367z M22.25,26.93
				c0.423-8.748,7.856-15.497,16.604-15.075c8.375,0.494,14.957,7.354,15.101,15.741c0.044,4.825-2.124,9.402-5.884,12.426
				c-1.313,1.086-2.063,2.709-2.038,4.413l0.002,2.525c0.001,0.626-0.506,1.133-1.132,1.134l-13.597,0.009
				c-0.626,0-1.134-0.507-1.134-1.133l-0.001-2.657c-0.019-1.695-0.801-3.29-2.127-4.344v-0.006
				C24.156,36.78,22.009,31.946,22.25,26.93z"/>
			<path fill="#85C049" d="M39.211,6.171l-0.003-4.532c-0.001-0.625-0.509-1.133-1.134-1.133c-0.625,0-1.132,0.509-1.132,1.134
				l0.002,4.532c0,0.625,0.508,1.133,1.134,1.132C38.703,7.305,39.211,6.797,39.211,6.171z"/>
			<path fill="#85C049" d="M28.295,8.495l-2.269-3.922c-0.003-0.004-0.006-0.009-0.008-0.013c-0.317-0.54-1.011-0.72-1.551-0.404
				c-0.54,0.317-0.72,1.011-0.403,1.552l2.269,3.922l0,0c0.313,0.542,1.006,0.728,1.548,0.415c0,0,0.001,0,0.001-0.001
				C28.424,9.73,28.61,9.037,28.295,8.495z"/>
			<path fill="#85C049" d="M20.431,17.511c0.308-0.543,0.117-1.236-0.426-1.544l-3.926-2.265c-0.004-0.002-0.008-0.005-0.013-0.008
				c-0.544-0.308-1.235-0.118-1.545,0.426c-0.309,0.545-0.118,1.236,0.426,1.545l3.925,2.264c0.005,0.003,0.009,0.005,0.014,0.008
				C19.43,18.247,20.122,18.056,20.431,17.511z"/>
			<path fill="#85C049" d="M16.561,26.581l-4.532,0.003c-0.626,0-1.133,0.509-1.133,1.134c0,0.625,0.508,1.133,1.135,1.132
				l4.532-0.002c0.625,0,1.132-0.509,1.131-1.134S17.187,26.581,16.561,26.581z"/>
			<path fill="#85C049" d="M14.545,41.324c0.317,0.539,1.012,0.72,1.551,0.403l3.922-2.269c0.004-0.003,0.009-0.005,0.013-0.008
				c0.54-0.316,0.72-1.012,0.404-1.551c-0.317-0.539-1.012-0.721-1.551-0.404l-3.922,2.27c-0.004,0.003-0.009,0.005-0.013,0.008
				C14.41,40.09,14.229,40.784,14.545,41.324z"/>
			<path fill="#85C049" d="M55.762,37.889c-0.311,0.542-0.126,1.235,0.417,1.547l3.926,2.264c0.004,0.003,0.008,0.005,0.013,0.008
				c0.543,0.31,1.236,0.118,1.544-0.426c0.309-0.544,0.118-1.235-0.427-1.545l-3.925-2.264c-0.172-0.1-0.367-0.151-0.566-0.151
				C56.339,37.321,55.965,37.538,55.762,37.889z"/>
			<path fill="#85C049" d="M65.286,27.684c-0.001-0.625-0.509-1.133-1.135-1.132l-4.532,0.002c-0.625,0-1.134,0.509-1.133,1.134
				c0,0.625,0.509,1.133,1.134,1.132l4.532-0.002C64.778,28.818,65.286,28.31,65.286,27.684z"/>
			<path fill="#85C049" d="M61.636,14.079c-0.317-0.539-1.011-0.719-1.552-0.403l-3.922,2.27c-0.004,0.002-0.008,0.005-0.014,0.008
				c-0.539,0.316-0.719,1.011-0.403,1.55c0.317,0.54,1.012,0.72,1.552,0.403l3.923-2.269c0.004-0.003,0.01-0.006,0.014-0.007
				C61.772,15.313,61.953,14.619,61.636,14.079z"/>
			<path fill="#85C049" d="M52.097,5.676c0.31-0.544,0.118-1.235-0.427-1.545c-0.544-0.309-1.235-0.118-1.544,0.426l-2.265,3.925
				c-0.003,0.005-0.005,0.01-0.007,0.014c-0.31,0.544-0.118,1.235,0.426,1.545c0.544,0.308,1.236,0.118,1.545-0.426l2.264-3.925
				C52.091,5.685,52.095,5.68,52.097,5.676z"/>
		</g>
	</g>
</g>
</svg>
