<?xml version="1.0" encoding="utf-8"?>
<!-- Generator: Adobe Illustrator 15.1.0, SVG Export Plug-In . SVG Version: 6.00 Build 0)  -->
<!DOCTYPE svg PUBLIC "-//W3C//DTD SVG 1.1//EN" "http://www.w3.org/Graphics/SVG/1.1/DTD/svg11.dtd" [
	<!ENTITY ns_extend "http://ns.adobe.com/Extensibility/1.0/">
	<!ENTITY ns_ai "http://ns.adobe.com/AdobeIllustrator/10.0/">
	<!ENTITY ns_graphs "http://ns.adobe.com/Graphs/1.0/">
	<!ENTITY ns_vars "http://ns.adobe.com/Variables/1.0/">
	<!ENTITY ns_imrep "http://ns.adobe.com/ImageReplacement/1.0/">
	<!ENTITY ns_sfw "http://ns.adobe.com/SaveForWeb/1.0/">
	<!ENTITY ns_custom "http://ns.adobe.com/GenericCustomNamespace/1.0/">
	<!ENTITY ns_adobe_xpath "http://ns.adobe.com/XPath/1.0/">
]>
<svg version="1.1" id="Layer_1" xmlns:x="&ns_extend;" xmlns:i="&ns_ai;" xmlns:graph="&ns_graphs;"
	 xmlns="http://www.w3.org/2000/svg" xmlns:xlink="http://www.w3.org/1999/xlink" x="0px" y="0px" width="252px" height="67.381px"
	 viewBox="0 0 252 67.381" enable-background="new 0 0 252 67.381" xml:space="preserve">
<metadata>
	<sfw  xmlns="&ns_sfw;">
		<slices></slices>
		<sliceSourceBounds  width="236.29" height="63.18" x="240.859" y="475.243" bottomLeftOrigin="true"></sliceSourceBounds>
	</sfw>
</metadata>
<path id="Path_5624" d="M16.618,3.876H8.38v37.386h9.152l-0.205-22.533l14.306,22.533h8.294V3.876h-9.155l0.208,22.785L16.618,3.876
	z M74.157,30.153c0.878-4.853-0.583-9.835-3.943-13.444c-2.764-2.896-6.612-4.505-10.614-4.44
	c-8.262,0.042-14.925,6.775-14.883,15.037c0.043,8.261,6.775,14.924,15.038,14.881c2.862,0.017,5.656-0.871,7.983-2.535
	c2.547-1.802,4.528-4.29,5.713-7.175H64.86c-1.099,1.739-3.053,2.744-5.105,2.628c-3.105,0.24-5.895-1.892-6.477-4.951
	L74.157,30.153z M53.38,23.784c1.214-3.463,5.006-5.286,8.469-4.072c1.906,0.668,3.404,2.167,4.072,4.072H53.38z M77.751,27.226
	c0.012,8.217,6.686,14.869,14.902,14.855s14.868-6.686,14.854-14.903c-0.012-8.218-6.685-14.869-14.902-14.855
	c-8.198,0.013-14.842,6.656-14.854,14.855V27.226z M86.142,27.226c0.013-3.896,3.184-7.045,7.08-7.032
	c3.897,0.013,7.045,3.183,7.032,7.081c-0.014,3.897-3.183,7.045-7.08,7.033c-3.88-0.014-7.02-3.155-7.033-7.033V27.226z"/>
<path id="Path_5625" fill="#E82629" d="M110.955,28.89c-0.253,7.328,3.69,13.098,13.497,13.098c9.911,0,13.042-6.023,13.042-11.986
	c0-4.347-1.769-7.584-8.743-10.713c-6.729-3.028-7.737-3.486-7.737-5.203c0.102-1.714,1.571-3.021,3.284-2.927
	c2.935,0,3.238,2.377,3.442,3.64h9.454c-0.147-8.99-7.432-11.617-12.587-11.617c-6.271,0-13.096,3.99-13.096,11.514
	c0,7.026,6.523,9.651,9.151,10.712c5.765,2.426,7.335,3.033,7.335,5.005c-0.014,1.996-1.645,3.601-3.64,3.586
	c-1.215,0-3.896-0.758-3.896-5.103L110.955,28.89z M140.425,23.028c0.014,10.95,8.904,19.815,19.854,19.8
	c10.95-0.014,19.816-8.904,19.8-19.854c-0.014-10.95-8.901-19.814-19.854-19.8c-10.928,0.016-19.786,8.871-19.8,19.8V23.028z
	 M149.982,22.478c0-5.255,3.591-10.917,10.212-10.917c6.875,0,10.155,6.215,10.155,11.063c0,4.799-3.286,10.961-10.059,10.961
	c-6.422,0-10.313-5.356-10.313-11.063L149.982,22.478z M185.066,41.268h9.557V27.021h10.468v-8.387h-10.468v-6.368h10.873V3.884
	h-20.43V41.268z M215.146,41.268h9.552v-29h7.335V3.884h-24.268v8.389h7.381V41.268z"/>
<path id="Path_5626" d="M11.976,65.639h-1.518V51.646H7.359v-1.521h7.732v1.521h-3.098L11.976,65.639z M24.349,57.08h6.516v1.533
	h-6.516v5.523h6.516v1.502h-8.051V50.122h8.051v1.521h-6.516V57.08z M52.296,54.136c-0.603-0.881-1.402-1.61-2.336-2.128
	c-0.906-0.471-1.916-0.707-2.938-0.689c-1.683-0.018-3.293,0.68-4.434,1.917c-1.198,1.217-1.859,2.861-1.833,4.567
	c-0.044,1.761,0.612,3.466,1.826,4.742c1.136,1.247,2.753,1.948,4.44,1.926c1.01,0.014,2.007-0.217,2.909-0.67
	c0.903-0.481,1.678-1.168,2.26-2.007h1.81c-0.654,1.263-1.643,2.322-2.856,3.063c-1.212,0.731-2.604,1.108-4.017,1.088
	c-2.146,0.053-4.217-0.797-5.706-2.344c-1.524-1.546-2.35-3.65-2.287-5.822c-0.005-1.062,0.204-2.117,0.618-3.096
	c0.422-0.991,1.038-1.889,1.81-2.642c0.709-0.716,1.554-1.284,2.486-1.672c0.949-0.389,1.966-0.586,2.993-0.577
	c1.467-0.02,2.911,0.369,4.167,1.13c1.25,0.776,2.263,1.882,2.926,3.196L52.296,54.136z M64.032,65.639h-1.538V50.122h1.538v6.958
	h7.37v-6.958h1.525v15.517h-1.525V58.56h-7.37V65.639z M92.289,63.787l-0.184-13.665h1.52v15.517h-1.838l-8.512-13.685l0.171,13.685
	h-1.5V50.122h1.832L92.289,63.787z M103.509,57.811c-0.048,1.765,0.615,3.477,1.839,4.749c1.176,1.258,2.831,1.953,4.551,1.918
	c1.702,0.029,3.333-0.677,4.475-1.939c1.211-1.291,1.864-3.007,1.815-4.775c0.022-1.71-0.652-3.354-1.87-4.555
	c-1.17-1.243-2.812-1.939-4.521-1.912c-0.705,0-1.404,0.124-2.064,0.368c-0.673,0.252-1.295,0.618-1.843,1.083
	c-0.741,0.626-1.335,1.408-1.74,2.294c-0.412,0.862-0.628,1.812-0.63,2.771 M101.921,57.789c-0.005-1.065,0.208-2.118,0.625-3.099
	c0.418-0.992,1.031-1.89,1.803-2.639c0.722-0.716,1.575-1.287,2.511-1.682c1.924-0.761,4.066-0.757,5.987,0.012
	c0.951,0.39,1.815,0.968,2.543,1.694c0.766,0.734,1.372,1.62,1.781,2.598c0.401,0.984,0.604,2.042,0.596,3.105
	c0.011,1.035-0.163,2.061-0.516,3.034c-0.345,0.926-0.864,1.776-1.531,2.503c-1.494,1.697-3.654,2.655-5.914,2.629
	c-2.119,0.048-4.161-0.808-5.611-2.354c-1.513-1.549-2.332-3.647-2.276-5.813 M133.036,65.633h-6.985V50.115h1.536V64.13h5.449
	V65.633z M142.009,57.803c-0.047,1.767,0.616,3.479,1.845,4.751c1.176,1.257,2.831,1.953,4.55,1.917
	c1.698,0.028,3.325-0.681,4.463-1.941c1.214-1.287,1.871-3.005,1.825-4.775c0.014-1.71-0.672-3.353-1.899-4.546
	c-1.168-1.243-2.807-1.937-4.513-1.912c-0.703,0-1.403,0.124-2.065,0.369c-0.673,0.249-1.294,0.615-1.838,1.082
	c-0.745,0.626-1.343,1.408-1.746,2.294c-0.414,0.862-0.631,1.812-0.635,2.771 M140.398,57.789c-0.003-1.065,0.208-2.117,0.624-3.099
	c0.422-0.989,1.034-1.886,1.805-2.639c0.721-0.716,1.573-1.287,2.509-1.682c0.941-0.383,1.951-0.574,2.969-0.567
	c3.2,0.008,6.089,1.925,7.341,4.871c0.403,0.986,0.607,2.042,0.603,3.105c0.007,1.035-0.168,2.061-0.519,3.034
	c-0.344,0.926-0.862,1.776-1.53,2.504c-0.748,0.833-1.658,1.501-2.678,1.961c-1.021,0.448-2.122,0.675-3.236,0.667
	c-2.121,0.047-4.162-0.809-5.617-2.354c-1.507-1.556-2.325-3.648-2.27-5.813 M169.935,58.193h9.64
	c-0.06,2.103-0.935,4.098-2.44,5.567c-1.467,1.444-3.456,2.231-5.518,2.185c-2.121,0.048-4.165-0.805-5.623-2.35
	c-1.506-1.557-2.322-3.651-2.266-5.816c-0.003-1.065,0.206-2.117,0.622-3.099c0.423-0.991,1.04-1.888,1.812-2.639
	c0.727-0.731,1.59-1.309,2.543-1.696c0.988-0.378,2.039-0.566,3.098-0.553c1.429-0.023,2.835,0.355,4.061,1.092
	c1.224,0.763,2.218,1.842,2.879,3.122h-1.877c-0.632-0.846-1.433-1.548-2.352-2.066c-0.861-0.45-1.823-0.679-2.795-0.663
	c-1.711-0.033-3.355,0.663-4.524,1.91c-1.21,1.226-1.872,2.885-1.844,4.605c-0.053,1.769,0.613,3.486,1.844,4.757
	c1.177,1.253,2.83,1.947,4.551,1.909c1.393,0.01,2.745-0.475,3.819-1.362c1.115-0.893,1.892-2.144,2.2-3.538h-7.832L169.935,58.193z
	 M189.365,65.63h-1.523V50.112h1.523V65.63z M199.944,57.07h6.524v1.535h-6.517v5.523h6.525v1.501h-8.06V50.112h8.06v1.522h-6.525
	L199.944,57.07z M214.691,61.201h1.469c-0.014,0.838,0.276,1.653,0.815,2.293c0.516,0.572,1.26,0.888,2.028,0.861
	c0.809,0.036,1.594-0.278,2.155-0.861c0.551-0.632,0.837-1.455,0.794-2.296c0-1.404-1.094-2.469-3.27-3.185l-0.386-0.127
	c-0.937-0.268-1.784-0.782-2.457-1.488c-0.521-0.668-0.79-1.502-0.755-2.351c-0.038-1.127,0.382-2.223,1.163-3.039
	c0.785-0.792,1.867-1.223,2.984-1.179c1.035-0.052,2.043,0.339,2.773,1.077c0.729,0.838,1.136,1.915,1.137,3.026h-1.438
	c-0.025-0.719-0.293-1.408-0.758-1.955c-0.443-0.471-1.073-0.723-1.722-0.69c-0.702-0.022-1.385,0.249-1.874,0.75
	c-0.495,0.515-0.759,1.203-0.735,1.913c-0.028,0.736,0.318,1.436,0.919,1.858c0.585,0.356,1.217,0.629,1.877,0.808
	c0.53,0.172,0.937,0.306,1.206,0.415c0.854,0.28,1.61,0.8,2.179,1.496c0.474,0.707,0.707,1.547,0.668,2.397
	c0.06,1.325-0.379,2.622-1.23,3.641c-0.83,0.921-2.028,1.426-3.268,1.375c-1.171,0.04-2.299-0.437-3.082-1.305
	c-0.82-0.956-1.253-2.185-1.216-3.441"/>
<path id="Path_5627" d="M238.844,2.768c-2.655,0-4.807,2.15-4.809,4.806c-0.002,2.654,2.15,4.808,4.805,4.808
	c2.656,0.001,4.809-2.15,4.81-4.805c0-0.001,0-0.002,0-0.003c0.001-2.653-2.149-4.805-4.802-4.806
	C238.848,2.768,238.845,2.768,238.844,2.768 M238.844,11.6c-2.222-0.001-4.023-1.804-4.023-4.027c0-2.224,1.805-4.025,4.027-4.024
	c2.223,0.001,4.024,1.802,4.024,4.024C242.872,9.797,241.07,11.6,238.844,11.6L238.844,11.6"/>
<path id="Path_5628" d="M237.499,5.294c0.387-0.066,0.776-0.099,1.167-0.094c0.458-0.041,0.918,0.077,1.301,0.333
	c0.245,0.217,0.38,0.534,0.367,0.861c0,0.483-0.313,0.911-0.772,1.057v0.021c0.321,0.155,0.542,0.461,0.587,0.814
	c0.094,0.399,0.208,0.793,0.343,1.181H239.7c-0.13-0.322-0.224-0.657-0.284-0.999c-0.128-0.551-0.319-0.73-0.76-0.741h-0.385v1.739
	h-0.763L237.499,5.294z M238.263,7.161h0.453c0.519,0,0.844-0.281,0.844-0.7c0-0.458-0.318-0.679-0.823-0.679
	c-0.158-0.002-0.315,0.009-0.474,0.036V7.161z"/>
</svg>
