<?xml version="1.0" encoding="utf-8"?>
<!-- Generator: Adobe Illustrator 15.1.0, SVG Export Plug-In . SVG Version: 6.00 Build 0)  -->
<!DOCTYPE svg PUBLIC "-//W3C//DTD SVG 1.1//EN" "http://www.w3.org/Graphics/SVG/1.1/DTD/svg11.dtd" [
	<!ENTITY ns_flows "http://ns.adobe.com/Flows/1.0/">
	<!ENTITY ns_extend "http://ns.adobe.com/Extensibility/1.0/">
	<!ENTITY ns_ai "http://ns.adobe.com/AdobeIllustrator/10.0/">
	<!ENTITY ns_graphs "http://ns.adobe.com/Graphs/1.0/">
	<!ENTITY ns_vars "http://ns.adobe.com/Variables/1.0/">
	<!ENTITY ns_imrep "http://ns.adobe.com/ImageReplacement/1.0/">
	<!ENTITY ns_sfw "http://ns.adobe.com/SaveForWeb/1.0/">
	<!ENTITY ns_custom "http://ns.adobe.com/GenericCustomNamespace/1.0/">
	<!ENTITY ns_adobe_xpath "http://ns.adobe.com/XPath/1.0/">
]>
<svg version="1.1"
	 xmlns:x="&ns_extend;" xmlns:i="&ns_ai;" xmlns:graph="&ns_graphs;" i:viewOrigin="-70.9697 821.5938" i:rulerOrigin="70.9697 -379.4063" i:pageBounds="-70.9697 821.5938 919.9697 379.4063"
	 xmlns="http://www.w3.org/2000/svg" xmlns:xlink="http://www.w3.org/1999/xlink" xmlns:a="http://ns.adobe.com/AdobeSVGViewerExtensions/3.0/"
	 x="0px" y="0px" width="990.939px" height="442.188px" viewBox="0 0 990.939 442.188" enable-background="new 0 0 990.939 442.188"
	 xml:space="preserve">
<metadata>
	<sfw  xmlns="&ns_sfw;">
		<slices></slices>
		<sliceSourceBounds  width="16383" height="417.289" x="-7767" y="379.405" bottomLeftOrigin="true"></sliceSourceBounds>
	</sfw>
	<variableSets  xmlns="&ns_vars;">
		<variableSet  locked="none" varSetName="binding1">
			<variables></variables>
			<v:sampleDataSets  xmlns:v="&ns_vars;" xmlns="&ns_custom;"></v:sampleDataSets>
		</variableSet>
	</variableSets>
</metadata>
<g id="Layer_1" i:layer="yes" i:dimmedPercent="50" i:rgbTrio="#4F008000FFFF">
	<g id="neosoft-logo-red" transform="translate(707.249 672.259)" i:knockout="Off">
		<path id="Path_5624" d="M-668.705-486H-703v155.652h38.107l-0.853-93.813l59.564,93.813h34.531V-486h-38.117l0.867,94.866
			L-668.705-486z M-429.143-379.6c3.655-20.202-2.429-40.944-16.417-55.972c-11.507-12.055-27.526-18.756-44.19-18.486
			c-34.399,0.02-62.269,27.922-62.249,62.32c0.02,34.399,27.922,62.27,62.322,62.25c0.19,0,0.381-0.002,0.572-0.004
			c11.916,0.065,23.549-3.631,33.241-10.563c10.601-7.498,18.849-17.857,23.782-29.868h-35.77
			c-4.572,7.235-12.708,11.422-21.253,10.937c-12.926,1.006-24.541-7.871-26.964-20.608L-429.143-379.6z M-515.643-406.112
			c5.055-14.42,20.842-22.011,35.261-16.955c7.935,2.781,14.173,9.021,16.955,16.955H-515.643z M-414.182-391.784
			c0.055,34.213,27.834,61.902,62.047,61.849c34.212-0.056,61.9-27.835,61.847-62.048c-0.056-34.213-27.835-61.902-62.047-61.848
			c-34.135,0.055-61.792,27.713-61.847,61.848V-391.784z M-379.249-391.784c0.056-16.265,13.285-29.404,29.55-29.35
			c16.266,0.054,29.405,13.285,29.351,29.55c-0.056,16.265-13.285,29.405-29.551,29.351c-16.187-0.056-29.295-13.164-29.35-29.351
			V-391.784z"/>
		<path id="Path_5625" fill="#E82629" d="M-268.775-384.359c-1.053,30.5,15.363,54.522,56.193,54.522
			c41.267,0,54.3-25.08,54.3-49.896c0-18.1-7.357-31.578-36.398-44.605c-28.013-12.6-32.209-14.511-32.209-21.661
			c0.427-7.133,6.538-12.578,13.672-12.183c12.218,0,13.479,9.898,14.332,15.154h39.367c-0.615-37.433-30.947-48.367-52.409-48.367
			c-26.112,0-54.523,16.61-54.523,47.938c0,29.25,27.158,40.178,38.101,44.6c24,10.101,30.541,12.627,30.541,20.839
			c-0.063,8.309-6.848,14.993-15.154,14.934c-5.066,0-16.225-3.159-16.225-21.246L-268.775-384.359z M-146.075-410.764
			c0.063,45.591,37.069,82.499,82.66,82.438c45.591-0.063,82.499-37.07,82.438-82.66c-0.062-45.591-37.069-82.5-82.659-82.438
			c-45.504,0.062-82.377,36.934-82.438,82.438L-146.075-410.764L-146.075-410.764z M-106.284-411.057
			c0-21.877,14.955-45.452,42.521-45.452c28.62,0,42.276,25.875,42.276,46.061c0,19.985-13.679,45.64-41.876,45.64
			c-26.733,0-42.942-22.302-42.942-46.062L-106.284-411.057z M39.788-332.821h39.791v-59.316h43.574v-34.919H79.579v-26.513h45.266
			v-34.9H39.789L39.788-332.821z M165.015-332.821h39.771v-120.742h30.541v-34.9h-101.04v34.926h30.731L165.015-332.821z"/>
		<path id="Path_5626" d="M-680.866-231.357h-6.318v-58.265h-12.9v-6.334h32.188v6.334h-12.9L-680.866-231.357z M-629.352-266.992
			h27.129v6.385h-27.129v22.995h27.129v6.255h-33.52v-64.604h33.521v6.334h-27.13V-266.992z M-512.997-279.245
			c-2.506-3.672-5.836-6.707-9.724-8.863c-3.773-1.963-7.979-2.948-12.231-2.866c-7.005-0.08-13.715,2.817-18.458,7.975
			c-4.99,5.062-7.739,11.911-7.632,19.019c-0.183,7.326,2.551,14.428,7.6,19.74c4.732,5.194,11.462,8.112,18.488,8.02
			c4.203,0.056,8.357-0.902,12.11-2.794c3.757-1.996,6.982-4.86,9.408-8.355h7.538c-2.723,5.264-6.837,9.677-11.895,12.764
			c-5.043,3.041-10.836,4.609-16.725,4.527c-8.936,0.226-17.555-3.313-23.754-9.753c-6.343-6.445-9.782-15.199-9.52-24.239
			c-0.022-4.43,0.853-8.816,2.573-12.898c1.759-4.127,4.321-7.863,7.538-10.991c2.951-2.984,6.469-5.352,10.347-6.958
			c3.951-1.625,8.188-2.444,12.46-2.409c6.109-0.091,12.121,1.538,17.349,4.7c5.205,3.236,9.419,7.843,12.182,13.313
			L-512.997-279.245z M-464.134-231.357h-6.406v-64.606h6.406v28.971h30.683v-28.971h6.349v64.605h-6.349v-29.473h-30.682
			L-464.134-231.357z M-346.488-239.068l-0.767-56.899h6.327v64.604h-7.656l-35.441-56.975l0.718,56.975h-6.245v-64.602h7.625
			L-346.488-239.068z M-299.775-263.954c-0.198,7.354,2.561,14.479,7.659,19.777c4.896,5.232,11.783,8.135,18.946,7.982
			c7.085,0.123,13.878-2.82,18.631-8.075c5.043-5.373,7.76-12.521,7.562-19.887c0.091-7.115-2.723-13.962-7.789-18.96
			c-4.876-5.179-11.705-8.065-18.816-7.957c-2.935-0.004-5.847,0.516-8.6,1.531c-2.799,1.049-5.393,2.573-7.667,4.51
			c-3.089,2.608-5.563,5.866-7.244,9.542c-1.718,3.607-2.613,7.551-2.624,11.546 M-306.383-264.038
			c-0.024-4.433,0.859-8.821,2.6-12.9c1.742-4.129,4.296-7.866,7.509-10.99c3.004-2.98,6.554-5.355,10.455-6.994
			c8.008-3.17,16.924-3.157,24.922,0.036c8.084,3.412,14.534,9.817,18,17.879c1.677,4.105,2.521,8.501,2.488,12.935
			c0.045,4.305-0.682,8.581-2.146,12.627c-1.435,3.854-3.597,7.395-6.37,10.428c-6.224,7.057-15.213,11.052-24.621,10.939
			c-8.826,0.202-17.322-3.357-23.367-9.794c-6.291-6.459-9.706-15.187-9.469-24.2 M-176.829-231.385h-29.085v-64.606h6.392v58.352
			h22.693V-231.385z M-139.482-263.985c-0.194,7.354,2.573,14.48,7.684,19.775c4.896,5.23,11.783,8.132,18.944,7.983
			c7.069,0.113,13.844-2.829,18.582-8.076c5.058-5.366,7.788-12.514,7.601-19.885c0.059-7.124-2.795-13.963-7.9-18.932
			c-4.87-5.178-11.693-8.065-18.802-7.957c-2.936-0.006-5.848,0.514-8.6,1.532c-2.801,1.04-5.394,2.565-7.66,4.507
			c-3.101,2.604-5.579,5.863-7.259,9.544c-1.733,3.604-2.638,7.549-2.646,11.546 M-146.188-264.039
			c-0.021-4.432,0.861-8.819,2.595-12.899c1.755-4.125,4.31-7.86,7.517-10.991c2.999-2.983,6.547-5.356,10.447-6.994
			c3.922-1.595,8.12-2.397,12.354-2.365c13.33,0.032,25.357,8.011,30.569,20.279c1.676,4.104,2.525,8.5,2.5,12.934
			c0.03,4.304-0.698,8.577-2.15,12.627c-1.438,3.854-3.603,7.394-6.377,10.428c-3.106,3.467-6.904,6.247-11.148,8.161
			c-4.245,1.865-8.836,2.812-13.474,2.772c-8.832,0.195-17.333-3.366-23.388-9.8c-6.271-6.471-9.678-15.191-9.45-24.2
			 M-23.218-262.362h40.134c-0.244,8.752-3.886,17.063-10.154,23.176c-6.109,6.013-14.396,9.293-22.966,9.093
			c-8.839,0.207-17.351-3.349-23.417-9.781c-6.27-6.476-9.668-15.202-9.429-24.213c-0.023-4.431,0.854-8.819,2.58-12.899
			c1.769-4.125,4.335-7.861,7.552-10.992c3.016-3.043,6.616-5.443,10.584-7.06c4.116-1.573,8.493-2.356,12.9-2.308
			c5.947-0.087,11.802,1.49,16.898,4.558c5.092,3.175,9.232,7.662,11.988,12.991H5.637c-2.629-3.518-5.963-6.445-9.788-8.602
			c-3.589-1.875-7.59-2.825-11.639-2.764c-7.123-0.134-13.969,2.76-18.838,7.961c-5.031,5.096-7.797,12.006-7.673,19.166
			c-0.22,7.367,2.549,14.511,7.673,19.808c4.904,5.215,11.789,8.104,18.946,7.953c5.803,0.03,11.433-1.976,15.907-5.669
			c4.646-3.727,7.879-8.931,9.157-14.746h-32.609L-23.218-262.362z M57.682-231.399h-6.349v-64.6h6.349V-231.399z M101.722-267.034
			h27.172v6.387h-27.143v22.994h27.172v6.256H95.376v-64.601h33.549v6.334h-27.172L101.722-267.034z M163.122-249.834h6.112
			c-0.057,3.487,1.151,6.877,3.398,9.544c2.151,2.381,5.242,3.691,8.448,3.583c3.364,0.149,6.63-1.155,8.964-3.583
			c2.304-2.635,3.49-6.063,3.312-9.559c0-5.854-4.559-10.282-13.615-13.264l-1.601-0.522c-3.9-1.117-7.432-3.258-10.226-6.2
			c-2.179-2.782-3.294-6.25-3.146-9.781c-0.16-4.699,1.588-9.264,4.846-12.654c3.265-3.311,7.771-5.094,12.417-4.915
			c4.313-0.214,8.513,1.417,11.551,4.485c3.041,3.494,4.723,7.967,4.736,12.601h-5.99c-0.11-2.992-1.221-5.86-3.153-8.147
			c-1.853-1.96-4.472-3.008-7.166-2.865c-2.929-0.103-5.765,1.03-7.815,3.123c-2.051,2.135-3.15,5.006-3.055,7.963
			c-0.121,3.062,1.32,5.977,3.827,7.737c2.435,1.485,5.065,2.614,7.818,3.354c2.2,0.716,3.899,1.281,5.016,1.732
			c3.557,1.17,6.702,3.33,9.072,6.229c1.972,2.942,2.946,6.441,2.78,9.98c0.249,5.515-1.577,10.922-5.117,15.155
			c-3.461,3.838-8.45,5.938-13.614,5.732c-4.868,0.167-9.563-1.823-12.827-5.439c-3.417-3.978-5.223-9.09-5.06-14.331"/>
		<path id="Path_5627" d="M263.683-493.118c-11.053-0.004-20.017,8.954-20.021,20.007s8.953,20.017,20.007,20.021
			s20.018-8.954,20.021-20.007c0-0.004,0-0.008,0-0.012C283.688-484.158,274.731-493.114,263.683-493.118 M263.683-456.344
			c-9.256-0.005-16.756-7.513-16.751-16.769s7.514-16.756,16.771-16.751c9.251,0.005,16.748,7.504,16.751,16.755
			c0.003,9.256-7.497,16.762-16.753,16.765C263.693-456.344,263.688-456.344,263.683-456.344"/>
		<path id="Path_5628" d="M258.087-482.598c1.604-0.277,3.227-0.409,4.852-0.394c1.912-0.17,3.824,0.32,5.418,1.39
			c1.022,0.903,1.584,2.22,1.526,3.583c0.002,2.009-1.296,3.788-3.21,4.4v0.086c1.335,0.643,2.253,1.919,2.438,3.39
			c0.393,1.662,0.87,3.303,1.433,4.916h-3.3c-0.539-1.34-0.937-2.733-1.185-4.156c-0.527-2.293-1.332-3.038-3.157-3.081h-1.602v7.24
			h-3.175L258.087-482.598z M261.258-474.824h1.894c2.148,0,3.511-1.168,3.511-2.917c0-1.906-1.326-2.823-3.425-2.823
			c-0.663-0.012-1.325,0.039-1.979,0.15V-474.824z"/>
	</g>
	<g i:isolated="yes" i:knockout="Off" enable-background="new    ">
		<path d="M44.322,30.046H14.11c-0.277,0-0.415,0.139-0.415,0.415v20.335c0,0.277,0.138,0.415,0.415,0.415h21.082
			c0.719,0,1.079,0.36,1.079,1.079v2.988c0,0.72-0.36,1.079-1.079,1.079H14.11c-0.277,0-0.415,0.139-0.415,0.415v20.667
			c0,0.277,0.138,0.414,0.415,0.414h30.212c0.719,0,1.079,0.361,1.079,1.079v2.988c0,0.72-0.36,1.079-1.079,1.079H8.881
			c-0.72,0-1.079-0.359-1.079-1.079V25.979c0-0.718,0.359-1.078,1.079-1.078h35.441c0.719,0,1.079,0.36,1.079,1.078v2.988
			C45.401,29.687,45.041,30.046,44.322,30.046z"/>
		<path d="M84.784,44.322c2.627,2.602,3.943,6.087,3.943,10.458v27.141c0,0.72-0.361,1.079-1.079,1.079h-3.735
			c-0.72,0-1.079-0.359-1.079-1.079V55.942c0-3.099-0.913-5.603-2.739-7.512c-1.826-1.909-4.206-2.863-7.138-2.863
			c-2.822,0-5.161,0.803-7.014,2.406c-1.854,1.605-2.919,3.708-3.195,6.309v27.639c0,0.72-0.361,1.079-1.079,1.079h-3.735
			c-0.72,0-1.079-0.359-1.079-1.079v-39.84c0-0.719,0.359-1.079,1.079-1.079h3.735c0.718,0,1.079,0.36,1.079,1.079v3.071
			c0,0.166,0.054,0.29,0.166,0.373c0.11,0.083,0.193,0.042,0.249-0.124c2.434-3.32,6.142-4.98,11.122-4.98
			C78.655,40.421,82.156,41.722,84.784,44.322z"/>
		<path d="M128.566,41.002h3.735c0.718,0,1.079,0.36,1.079,1.079v39.508c0,6.196-1.799,10.734-5.395,13.612
			c-3.598,2.876-8.495,4.315-14.691,4.315c-1.162,0-2.047-0.028-2.656-0.083c-0.72-0.056-1.079-0.443-1.079-1.161l0.166-3.32
			c0-0.775,0.359-1.107,1.079-0.996c5.864,0.276,10.112-0.581,12.74-2.573c2.628-1.992,3.943-5.312,3.943-9.96v-2.905
			c0-0.166-0.056-0.275-0.166-0.332c-0.112-0.054-0.222,0-0.332,0.166c-2.546,3.266-6.142,4.897-10.79,4.897
			c-3.598,0-6.793-0.968-9.586-2.905c-2.795-1.936-4.663-4.675-5.603-8.217c-0.664-2.269-0.996-5.644-0.996-10.126
			c0-2.435,0.069-4.482,0.208-6.142c0.138-1.66,0.428-3.154,0.872-4.482c0.996-3.32,2.793-5.989,5.395-8.01
			c2.6-2.019,5.727-3.029,9.379-3.029c4.814,0,8.521,1.577,11.122,4.731c0.11,0.166,0.22,0.222,0.332,0.166
			c0.11-0.055,0.166-0.166,0.166-0.332v-2.822C127.487,41.362,127.846,41.002,128.566,41.002z M127.404,67.23
			c0.054-1.217,0.083-2.988,0.083-5.313c0-2.822-0.029-4.717-0.083-5.686c-0.056-0.968-0.195-1.867-0.415-2.697
			c-0.444-2.324-1.536-4.246-3.279-5.769c-1.743-1.521-3.942-2.282-6.598-2.282c-2.602,0-4.801,0.747-6.599,2.24
			c-1.799,1.494-3.058,3.432-3.776,5.811c-0.554,1.771-0.83,4.538-0.83,8.3c0,4.04,0.276,6.835,0.83,8.383
			c0.552,2.324,1.756,4.247,3.61,5.769c1.853,1.522,4.108,2.282,6.765,2.282c2.71,0,4.938-0.746,6.681-2.24
			c1.743-1.494,2.835-3.403,3.279-5.728C127.238,69.471,127.348,68.448,127.404,67.23z"/>
		<path d="M146.327,32.245c-0.83-0.801-1.245-1.839-1.245-3.112c0-1.272,0.415-2.295,1.245-3.071
			c0.83-0.773,1.909-1.161,3.237-1.161s2.407,0.388,3.237,1.161c0.83,0.776,1.245,1.799,1.245,3.071
			c0,1.273-0.415,2.312-1.245,3.112c-0.83,0.803-1.909,1.204-3.237,1.204S147.156,33.048,146.327,32.245z M146.659,81.921v-39.84
			c0-0.719,0.359-1.079,1.079-1.079h3.735c0.718,0,1.079,0.36,1.079,1.079v39.84c0,0.72-0.36,1.079-1.079,1.079h-3.735
			C147.018,83,146.659,82.641,146.659,81.921z"/>
		<path d="M194.258,44.322c2.627,2.602,3.943,6.087,3.943,10.458v27.141c0,0.72-0.361,1.079-1.079,1.079h-3.735
			c-0.72,0-1.079-0.359-1.079-1.079V55.942c0-3.099-0.913-5.603-2.739-7.512c-1.826-1.909-4.206-2.863-7.138-2.863
			c-2.822,0-5.161,0.803-7.014,2.406c-1.854,1.605-2.919,3.708-3.195,6.309v27.639c0,0.72-0.361,1.079-1.079,1.079h-3.735
			c-0.72,0-1.079-0.359-1.079-1.079v-39.84c0-0.719,0.359-1.079,1.079-1.079h3.735c0.718,0,1.079,0.36,1.079,1.079v3.071
			c0,0.166,0.054,0.29,0.166,0.373c0.11,0.083,0.193,0.042,0.249-0.124c2.434-3.32,6.142-4.98,11.122-4.98
			C188.129,40.421,191.63,41.722,194.258,44.322z"/>
		<path d="M233.848,76.899c1.798-1.079,3.196-2.586,4.192-4.523c0.11-0.276,0.303-0.47,0.581-0.581
			c0.276-0.11,0.553-0.083,0.83,0.083l2.407,1.328c0.664,0.388,0.83,0.858,0.498,1.411c-1.328,2.768-3.32,4.967-5.976,6.599
			c-2.656,1.633-5.81,2.448-9.462,2.448c-3.874,0-7.138-0.913-9.794-2.739c-2.656-1.826-4.565-4.37-5.727-7.636
			c-1.052-2.767-1.577-6.584-1.577-11.454c0-2.379,0.042-4.274,0.125-5.686s0.291-2.725,0.623-3.942
			c0.94-3.597,2.835-6.474,5.686-8.632c2.849-2.158,6.293-3.237,10.333-3.237c4.814,0,8.59,1.245,11.33,3.735
			c2.739,2.49,4.495,6.004,5.271,10.541c0.332,1.771,0.498,4.537,0.498,8.3c0,0.72-0.36,1.079-1.079,1.079h-26.56
			c-0.278,0-0.415,0.139-0.415,0.415c0,2.768,0.166,4.786,0.498,6.059c0.608,2.49,1.895,4.469,3.859,5.935
			c1.963,1.467,4.44,2.199,7.429,2.199C229.906,78.547,232.049,77.979,233.848,76.899z M219.78,47.601
			c-1.771,1.411-2.934,3.307-3.486,5.686c-0.332,1.107-0.554,2.988-0.664,5.644c0,0.278,0.137,0.415,0.415,0.415h21.331
			c0.276,0,0.415-0.137,0.415-0.415c-0.112-2.434-0.278-4.204-0.498-5.312c-0.61-2.49-1.84-4.468-3.694-5.935
			c-1.854-1.466-4.191-2.199-7.013-2.199C223.818,45.484,221.55,46.189,219.78,47.601z"/>
		<path d="M278.17,76.899c1.798-1.079,3.196-2.586,4.192-4.523c0.11-0.276,0.303-0.47,0.581-0.581
			c0.276-0.11,0.553-0.083,0.83,0.083l2.407,1.328c0.664,0.388,0.83,0.858,0.498,1.411c-1.328,2.768-3.32,4.967-5.976,6.599
			c-2.656,1.633-5.81,2.448-9.462,2.448c-3.874,0-7.138-0.913-9.794-2.739c-2.656-1.826-4.565-4.37-5.727-7.636
			c-1.052-2.767-1.577-6.584-1.577-11.454c0-2.379,0.042-4.274,0.125-5.686s0.291-2.725,0.623-3.942
			c0.94-3.597,2.835-6.474,5.686-8.632c2.849-2.158,6.293-3.237,10.333-3.237c4.814,0,8.59,1.245,11.33,3.735
			c2.739,2.49,4.495,6.004,5.271,10.541c0.332,1.771,0.498,4.537,0.498,8.3c0,0.72-0.36,1.079-1.079,1.079h-26.56
			c-0.278,0-0.415,0.139-0.415,0.415c0,2.768,0.166,4.786,0.498,6.059c0.608,2.49,1.895,4.469,3.859,5.935
			c1.963,1.467,4.44,2.199,7.429,2.199C274.228,78.547,276.371,77.979,278.17,76.899z M264.102,47.601
			c-1.771,1.411-2.934,3.307-3.486,5.686c-0.332,1.107-0.554,2.988-0.664,5.644c0,0.278,0.137,0.415,0.415,0.415h21.331
			c0.276,0,0.415-0.137,0.415-0.415c-0.112-2.434-0.278-4.204-0.498-5.312c-0.61-2.49-1.84-4.468-3.694-5.935
			c-1.854-1.466-4.191-2.199-7.013-2.199C268.14,45.484,265.872,46.189,264.102,47.601z"/>
		<path d="M321.206,41.583c0.552,0.222,0.747,0.664,0.581,1.328l-0.83,3.652c-0.166,0.663-0.61,0.886-1.328,0.663
			c-1.052-0.332-2.407-0.469-4.066-0.415c-2.879,0.112-5.259,1.177-7.139,3.196c-1.882,2.021-2.822,4.579-2.822,7.677V81.92
			c0,0.72-0.361,1.079-1.079,1.079h-3.735c-0.72,0-1.079-0.359-1.079-1.079V42.08c0-0.719,0.359-1.079,1.079-1.079h3.735
			c0.718,0,1.079,0.36,1.079,1.079v4.647c0,0.223,0.042,0.347,0.125,0.374c0.083,0.028,0.179-0.042,0.291-0.208
			c1.162-1.991,2.643-3.54,4.44-4.647c1.797-1.106,3.859-1.66,6.183-1.66C318.466,40.587,319.988,40.919,321.206,41.583z"/>
		<path d="M352.29,76.899c1.798-1.079,3.196-2.586,4.192-4.523c0.109-0.276,0.303-0.47,0.58-0.581
			c0.276-0.11,0.554-0.083,0.83,0.083l2.407,1.328c0.664,0.388,0.83,0.858,0.498,1.411c-1.328,2.768-3.32,4.967-5.976,6.599
			c-2.656,1.633-5.811,2.448-9.462,2.448c-3.874,0-7.139-0.913-9.794-2.739c-2.656-1.826-4.565-4.37-5.728-7.636
			c-1.052-2.767-1.577-6.584-1.577-11.454c0-2.379,0.042-4.274,0.125-5.686s0.291-2.725,0.623-3.942
			c0.94-3.597,2.835-6.474,5.687-8.632c2.849-2.158,6.293-3.237,10.333-3.237c4.813,0,8.59,1.245,11.33,3.735
			c2.738,2.49,4.494,6.004,5.27,10.541c0.332,1.771,0.498,4.537,0.498,8.3c0,0.72-0.36,1.079-1.079,1.079h-26.56
			c-0.278,0-0.415,0.139-0.415,0.415c0,2.768,0.166,4.786,0.498,6.059c0.607,2.49,1.895,4.469,3.858,5.935
			c1.963,1.467,4.44,2.199,7.43,2.199C348.347,78.547,350.491,77.979,352.29,76.899z M338.221,47.601
			c-1.771,1.411-2.934,3.307-3.485,5.686c-0.332,1.107-0.555,2.988-0.664,5.644c0,0.278,0.137,0.415,0.415,0.415h21.331
			c0.275,0,0.415-0.137,0.415-0.415c-0.112-2.434-0.278-4.204-0.498-5.312c-0.61-2.49-1.84-4.468-3.694-5.935
			c-1.854-1.466-4.191-2.199-7.013-2.199C342.26,45.484,339.991,46.189,338.221,47.601z"/>
		<path d="M400.72,24.9h3.734c0.719,0,1.079,0.36,1.079,1.078V81.92c0,0.72-0.36,1.079-1.079,1.079h-3.734
			c-0.72,0-1.079-0.359-1.079-1.079v-3.154c0-0.166-0.056-0.262-0.166-0.29c-0.11-0.027-0.222,0.015-0.332,0.124
			c-1.218,1.605-2.727,2.851-4.522,3.735c-1.799,0.885-3.805,1.328-6.019,1.328c-3.874,0-7.125-0.996-9.753-2.988
			c-2.628-1.992-4.439-4.702-5.437-8.134c-0.775-2.49-1.161-6.003-1.161-10.541c0-4.592,0.331-8.022,0.995-10.292
			c0.996-3.54,2.822-6.321,5.479-8.342c2.656-2.019,5.947-3.029,9.877-3.029c2.158,0,4.15,0.43,5.977,1.286
			c1.826,0.859,3.348,2.09,4.564,3.694c0.11,0.166,0.222,0.222,0.332,0.166c0.11-0.055,0.166-0.166,0.166-0.332V25.979
			C399.641,25.261,400,24.9,400.72,24.9z M399.143,68.226c0.222-1.493,0.332-3.568,0.332-6.225s-0.11-4.744-0.332-6.267
			c-0.222-1.521-0.608-2.863-1.161-4.025c-0.664-1.881-1.758-3.389-3.278-4.523c-1.522-1.134-3.334-1.701-5.438-1.701
			c-2.214,0-4.123,0.554-5.728,1.659c-1.605,1.108-2.769,2.573-3.485,4.399c-0.664,1.218-1.148,2.587-1.453,4.108
			c-0.305,1.522-0.456,3.64-0.456,6.35c0,2.602,0.11,4.635,0.332,6.101c0.222,1.467,0.608,2.78,1.162,3.942
			c0.664,1.992,1.839,3.569,3.527,4.731c1.688,1.161,3.693,1.742,6.018,1.742c2.212,0,4.066-0.581,5.562-1.742
			c1.494-1.162,2.601-2.711,3.32-4.648C398.563,71.021,398.921,69.72,399.143,68.226z"/>
		<path d="M465.874,53.203c2.933,1.218,5.159,3.017,6.682,5.395c1.521,2.38,2.283,5.258,2.283,8.633
			c0,4.979-1.592,8.854-4.771,11.619c-3.184,2.768-7.374,4.15-12.575,4.15h-19.837c-0.721,0-1.079-0.359-1.079-1.079V25.979
			c0-0.718,0.358-1.078,1.079-1.078h19.256c5.367,0,9.587,1.327,12.658,3.983c3.069,2.656,4.605,6.392,4.605,11.205
			c0,3.044-0.706,5.617-2.117,7.719c-1.411,2.104-3.473,3.735-6.184,4.897C465.542,52.871,465.542,53.037,465.874,53.203z
			 M442.469,30.461v19.754c0,0.277,0.137,0.415,0.415,0.415h14.026c3.486,0,6.267-0.913,8.342-2.739
			c2.075-1.825,3.112-4.26,3.112-7.304c0-3.208-1.037-5.769-3.112-7.678c-2.075-1.908-4.855-2.863-8.342-2.863h-14.026
			C442.605,30.046,442.469,30.185,442.469,30.461z M465.833,74.783c2.075-1.992,3.112-4.676,3.112-8.051s-1.065-6.072-3.195-8.093
			c-2.131-2.02-4.994-3.029-8.591-3.029h-14.275c-0.278,0-0.415,0.139-0.415,0.415v21.331c0,0.277,0.137,0.415,0.415,0.415h14.607
			C460.979,77.771,463.758,76.775,465.833,74.783z"/>
		<path d="M484.384,98.521v-2.905c0-0.72,0.192-1.079,0.581-1.079h0.58c2.158,0,3.831-0.305,5.022-0.913
			c1.188-0.609,2.212-1.688,3.069-3.237c0.857-1.55,1.785-3.93,2.78-7.138c0.055-0.111,0.055-0.276,0-0.498l-13.943-40.504
			c-0.056-0.11-0.083-0.249-0.083-0.415c0-0.221,0.097-0.415,0.29-0.581s0.43-0.249,0.706-0.249h3.9
			c0.664,0,1.079,0.305,1.245,0.913l10.707,32.536c0.055,0.222,0.138,0.332,0.249,0.332c0.109,0,0.192-0.11,0.249-0.332
			l10.458-32.536c0.166-0.608,0.553-0.913,1.162-0.913h3.983c0.386,0,0.664,0.111,0.83,0.332c0.166,0.222,0.192,0.526,0.083,0.913
			l-15.271,44.405c-1.328,3.706-2.573,6.445-3.735,8.217c-1.162,1.771-2.614,3.001-4.357,3.693c-1.743,0.691-4.19,1.037-7.346,1.037
			h-0.58C484.576,99.6,484.384,99.239,484.384,98.521z"/>
	</g>
</g>
</svg>
