<?xml version="1.0" encoding="utf-8"?>
<!-- Generator: Adobe Illustrator 15.1.0, SVG Export Plug-In . SVG Version: 6.00 Build 0)  -->
<!DOCTYPE svg PUBLIC "-//W3C//DTD SVG 1.1//EN" "http://www.w3.org/Graphics/SVG/1.1/DTD/svg11.dtd" [
	<!ENTITY ns_flows "http://ns.adobe.com/Flows/1.0/">
	<!ENTITY ns_extend "http://ns.adobe.com/Extensibility/1.0/">
	<!ENTITY ns_ai "http://ns.adobe.com/AdobeIllustrator/10.0/">
	<!ENTITY ns_graphs "http://ns.adobe.com/Graphs/1.0/">
	<!ENTITY ns_vars "http://ns.adobe.com/Variables/1.0/">
	<!ENTITY ns_imrep "http://ns.adobe.com/ImageReplacement/1.0/">
	<!ENTITY ns_sfw "http://ns.adobe.com/SaveForWeb/1.0/">
	<!ENTITY ns_custom "http://ns.adobe.com/GenericCustomNamespace/1.0/">
	<!ENTITY ns_adobe_xpath "http://ns.adobe.com/XPath/1.0/">
]>
<svg version="1.1"
	 xmlns:x="&ns_extend;" xmlns:i="&ns_ai;" xmlns:graph="&ns_graphs;" i:viewOrigin="-70.9697 821.5938" i:rulerOrigin="70.9697 -379.4063" i:pageBounds="-70.9697 821.5938 919.9697 379.4063"
	 xmlns="http://www.w3.org/2000/svg" xmlns:xlink="http://www.w3.org/1999/xlink" xmlns:a="http://ns.adobe.com/AdobeSVGViewerExtensions/3.0/"
	 x="0px" y="0px" width="990.939px" height="442.188px" viewBox="0 0 990.939 442.188" enable-background="new 0 0 990.939 442.188"
	 xml:space="preserve">
<metadata>
	<sfw  xmlns="&ns_sfw;">
		<slices></slices>
		<sliceSourceBounds  width="16383" height="436.268" x="-7766.751" y="379.403" bottomLeftOrigin="true"></sliceSourceBounds>
	</sfw>
	<variableSets  xmlns="&ns_vars;">
		<variableSet  locked="none" varSetName="binding1">
			<variables></variables>
			<v:sampleDataSets  xmlns:v="&ns_vars;" xmlns="&ns_custom;"></v:sampleDataSets>
		</variableSet>
	</variableSets>
</metadata>
<g id="Layer_1" i:layer="yes" i:dimmedPercent="50" i:rgbTrio="#4F008000FFFF">
	<g id="neosoft-logo-red" transform="translate(707.249 672.259)" i:knockout="Off">
		<path id="Path_5624" d="M-668.705-488H-703v155.652h38.107l-0.853-93.813l59.564,93.813h34.531V-488h-38.117l0.867,94.866
			L-668.705-488z M-429.143-380.6c3.655-20.202-2.429-40.944-16.417-55.972c-11.507-12.055-27.526-18.756-44.19-18.486
			c-34.399,0.02-62.269,27.922-62.249,62.32s27.922,62.27,62.322,62.248c0.189,0,0.381-0.002,0.572-0.004
			c11.916,0.066,23.549-3.63,33.241-10.562c10.601-7.498,18.849-17.857,23.782-29.868h-35.77
			c-4.572,7.234-12.708,11.422-21.253,10.938c-12.926,1.006-24.541-7.871-26.964-20.608L-429.143-380.6z M-515.643-407.112
			c5.055-14.42,20.842-22.011,35.261-16.955c7.935,2.781,14.173,9.021,16.955,16.955H-515.643z M-414.182-392.784
			c0.055,34.213,27.834,61.902,62.047,61.85c34.212-0.057,61.899-27.835,61.847-62.049c-0.056-34.213-27.835-61.901-62.047-61.848
			c-34.135,0.055-61.792,27.713-61.847,61.848V-392.784z M-379.249-392.784c0.056-16.265,13.285-29.404,29.55-29.35
			c16.266,0.054,29.405,13.285,29.351,29.55c-0.056,16.265-13.285,29.405-29.551,29.351c-16.187-0.056-29.295-13.164-29.35-29.351
			V-392.784z"/>
		<path id="Path_5625" fill="#E82629" d="M-268.775-384.359c-1.053,30.5,15.363,54.521,56.193,54.521
			c41.267,0,54.3-25.08,54.3-49.896c0-18.1-7.356-31.577-36.397-44.604c-28.014-12.601-32.209-14.511-32.209-21.661
			c0.427-7.133,6.538-12.578,13.672-12.183c12.218,0,13.479,9.897,14.332,15.153h39.367c-0.615-37.433-30.947-48.368-52.409-48.368
			c-26.112,0-54.523,16.61-54.523,47.938c0,29.25,27.158,40.178,38.102,44.6c24,10.102,30.541,12.627,30.541,20.84
			c-0.063,8.309-6.849,14.992-15.154,14.934c-5.066,0-16.225-3.159-16.225-21.246L-268.775-384.359z M-146.075-412.764
			c0.063,45.591,37.069,82.499,82.66,82.438c45.591-0.063,82.499-37.069,82.438-82.66c-0.062-45.59-37.068-82.5-82.658-82.438
			c-45.504,0.062-82.377,36.934-82.438,82.438L-146.075-412.764L-146.075-412.764z M-106.284-411.057
			c0-21.877,14.955-45.452,42.521-45.452c28.62,0,42.275,25.875,42.275,46.061c0,19.985-13.679,45.641-41.876,45.641
			c-26.732,0-42.941-22.303-42.941-46.063L-106.284-411.057z M39.788-332.821h39.791v-59.315h43.574v-34.919H79.579v-26.513h45.266
			v-34.9H39.789L39.788-332.821z M165.015-332.821h39.771v-120.742h30.541v-34.9h-101.04v34.926h30.73L165.015-332.821z"/>
		<path id="Path_5626" d="M-680.866-231.357h-6.318v-58.266h-12.9v-6.334h32.188v6.334h-12.9L-680.866-231.357z M-629.352-266.992
			h27.129v6.386h-27.129v22.994h27.129v6.256h-33.52v-64.604h33.521v6.334h-27.13V-266.992z M-512.997-279.245
			c-2.506-3.672-5.836-6.707-9.724-8.861c-3.773-1.965-7.979-2.949-12.231-2.867c-7.005-0.08-13.715,2.816-18.458,7.975
			c-4.99,5.063-7.739,11.911-7.632,19.02c-0.183,7.326,2.551,14.428,7.6,19.739c4.732,5.194,11.462,8.112,18.488,8.021
			c4.203,0.056,8.357-0.902,12.11-2.794c3.757-1.996,6.982-4.86,9.408-8.355h7.538c-2.723,5.265-6.837,9.679-11.895,12.765
			c-5.043,3.041-10.836,4.608-16.725,4.526c-8.936,0.227-17.555-3.313-23.754-9.753c-6.343-6.444-9.782-15.199-9.52-24.238
			c-0.022-4.431,0.853-8.816,2.573-12.898c1.759-4.127,4.321-7.863,7.538-10.991c2.951-2.985,6.469-5.351,10.347-6.958
			c3.951-1.625,8.188-2.443,12.46-2.408c6.109-0.092,12.121,1.537,17.349,4.699c5.205,3.236,9.419,7.842,12.182,13.314
			L-512.997-279.245z M-464.134-231.357h-6.406v-64.606h6.406v28.971h30.683v-28.971h6.349v64.605h-6.349v-29.474h-30.682
			L-464.134-231.357z M-346.488-239.068l-0.767-56.899h6.327v64.604h-7.656l-35.441-56.976l0.718,56.976h-6.245v-64.603h7.625
			L-346.488-239.068z M-299.775-263.954c-0.197,7.354,2.562,14.479,7.659,19.777c4.896,5.232,11.783,8.135,18.946,7.982
			c7.085,0.122,13.878-2.82,18.631-8.075c5.043-5.373,7.76-12.521,7.563-19.888c0.091-7.114-2.724-13.963-7.789-18.959
			c-4.876-5.18-11.705-8.065-18.816-7.959c-2.935-0.004-5.847,0.518-8.6,1.532c-2.8,1.048-5.394,2.573-7.667,4.509
			c-3.09,2.609-5.563,5.867-7.244,9.543c-1.718,3.607-2.613,7.552-2.624,11.547 M-306.383-264.038
			c-0.024-4.433,0.858-8.82,2.6-12.898c1.742-4.129,4.296-7.867,7.509-10.991c3.004-2.981,6.555-5.356,10.455-6.994
			c8.008-3.17,16.924-3.157,24.922,0.036c8.084,3.412,14.534,9.818,18,17.879c1.678,4.105,2.521,8.501,2.488,12.936
			c0.045,4.305-0.682,8.58-2.146,12.628c-1.436,3.854-3.598,7.394-6.37,10.427c-6.225,7.057-15.213,11.052-24.621,10.938
			c-8.826,0.202-17.322-3.356-23.367-9.794c-6.291-6.459-9.706-15.187-9.469-24.199 M-176.829-231.385h-29.085v-64.606h6.392v58.353
			h22.693V-231.385z M-139.481-263.985c-0.194,7.354,2.572,14.479,7.684,19.774c4.896,5.23,11.783,8.132,18.943,7.983
			c7.069,0.114,13.845-2.829,18.582-8.076c5.059-5.366,7.788-12.514,7.602-19.885c0.059-7.124-2.795-13.962-7.9-18.933
			c-4.87-5.178-11.692-8.064-18.802-7.957c-2.936-0.006-5.848,0.514-8.6,1.532c-2.802,1.04-5.395,2.565-7.66,4.507
			c-3.102,2.604-5.579,5.863-7.26,9.544c-1.732,3.604-2.638,7.55-2.646,11.546 M-146.188-264.039
			c-0.021-4.432,0.861-8.818,2.596-12.897c1.755-4.125,4.31-7.861,7.517-10.992c2.999-2.983,6.547-5.357,10.447-6.994
			c3.922-1.595,8.12-2.398,12.354-2.365c13.33,0.032,25.357,8.012,30.569,20.279c1.676,4.104,2.525,8.5,2.5,12.934
			c0.03,4.305-0.698,8.577-2.15,12.627c-1.438,3.854-3.603,7.395-6.377,10.429c-3.105,3.467-6.903,6.247-11.147,8.161
			c-4.245,1.864-8.836,2.812-13.474,2.771c-8.832,0.195-17.332-3.366-23.389-9.8c-6.271-6.471-9.678-15.191-9.45-24.2
			 M-23.218-262.362h40.134c-0.244,8.753-3.886,17.063-10.154,23.177c-6.108,6.013-14.396,9.293-22.966,9.093
			c-8.839,0.207-17.351-3.349-23.417-9.781c-6.27-6.476-9.668-15.202-9.429-24.213c-0.023-4.431,0.854-8.819,2.58-12.9
			c1.769-4.125,4.335-7.859,7.552-10.99c3.016-3.043,6.616-5.443,10.584-7.061c4.116-1.574,8.493-2.355,12.9-2.308
			c5.946-0.087,11.802,1.491,16.897,4.558c5.092,3.174,9.232,7.662,11.988,12.991H5.637c-2.629-3.517-5.963-6.444-9.788-8.601
			c-3.589-1.875-7.59-2.826-11.639-2.766c-7.123-0.134-13.969,2.76-18.838,7.961c-5.031,5.098-7.797,12.006-7.673,19.166
			c-0.22,7.367,2.549,14.512,7.673,19.809c4.904,5.215,11.789,8.104,18.946,7.953c5.803,0.029,11.433-1.977,15.906-5.668
			c4.646-3.729,7.88-8.933,9.157-14.747h-32.609L-23.218-262.362z M57.682-231.399h-6.349v-64.601h6.349V-231.399z M101.722-267.034
			h27.172v6.388h-27.143v22.993h27.172v6.257H95.376v-64.602h33.549v6.334h-27.172L101.722-267.034z M163.122-249.834h6.112
			c-0.058,3.487,1.15,6.877,3.397,9.544c2.151,2.381,5.242,3.691,8.448,3.583c3.364,0.149,6.63-1.155,8.964-3.583
			c2.304-2.635,3.49-6.063,3.313-9.559c0-5.854-4.56-10.282-13.615-13.266l-1.602-0.521c-3.899-1.117-7.432-3.258-10.226-6.2
			c-2.179-2.782-3.294-6.25-3.146-9.781c-0.159-4.697,1.589-9.264,4.847-12.652c3.265-3.313,7.771-5.096,12.417-4.916
			c4.313-0.215,8.513,1.417,11.551,4.484c3.041,3.494,4.723,7.969,4.736,12.602h-5.99c-0.11-2.992-1.222-5.86-3.153-8.147
			c-1.853-1.96-4.472-3.008-7.166-2.866c-2.929-0.102-5.765,1.031-7.814,3.123c-2.052,2.137-3.15,5.008-3.056,7.965
			c-0.121,3.062,1.32,5.977,3.827,7.736c2.436,1.485,5.065,2.614,7.818,3.354c2.2,0.716,3.898,1.28,5.016,1.731
			c3.557,1.17,6.702,3.33,9.072,6.229c1.972,2.941,2.946,6.44,2.78,9.979c0.249,5.516-1.577,10.921-5.117,15.155
			c-3.461,3.838-8.45,5.938-13.614,5.732c-4.868,0.167-9.563-1.823-12.827-5.439c-3.417-3.978-5.223-9.09-5.06-14.331"/>
		<path id="Path_5627" d="M263.683-493.118c-11.053-0.004-20.017,8.954-20.021,20.007s8.953,20.017,20.007,20.021
			s20.018-8.954,20.021-20.007c0-0.004,0-0.008,0-0.012C283.688-484.158,274.731-493.114,263.683-493.118 M263.683-456.344
			c-9.256-0.005-16.756-7.513-16.751-16.769s7.515-16.756,16.771-16.751c9.251,0.005,16.748,7.504,16.751,16.755
			c0.003,9.256-7.497,16.762-16.753,16.765C263.693-456.344,263.688-456.344,263.683-456.344"/>
		<path id="Path_5628" d="M258.087-482.598c1.604-0.277,3.227-0.409,4.852-0.394c1.912-0.17,3.824,0.32,5.418,1.39
			c1.022,0.903,1.585,2.22,1.526,3.583c0.002,2.009-1.296,3.788-3.21,4.4v0.086c1.335,0.643,2.253,1.919,2.438,3.39
			c0.393,1.662,0.87,3.303,1.433,4.916h-3.3c-0.539-1.34-0.938-2.733-1.185-4.156c-0.527-2.293-1.332-3.038-3.157-3.081H261.3v7.24
			h-3.175L258.087-482.598z M261.258-474.824h1.895c2.147,0,3.511-1.168,3.511-2.917c0-1.906-1.326-2.823-3.425-2.823
			c-0.663-0.012-1.325,0.039-1.979,0.15L261.258-474.824L261.258-474.824z"/>
	</g>
	<g i:knockout="Off">
		<path fill="#252627" d="M627.97,57.748c0,21.45-17.55,39-39,39H42.933c-21.45,0-39-17.55-39-39V44.923c0-21.45,17.55-39,39-39
			H588.97c21.45,0,39,17.55,39,39V57.748z"/>
	</g>
	<g i:knockout="Off">
		<path fill="#FEFEFE" d="M58.398,75.42V29.427h30.133v5.104h-24.41v14.825h23.928v5.103H64.121v15.86h24.41v5.103L58.398,75.42
			L58.398,75.42z"/>
		<path fill="#FEFEFE" d="M130.87,75.42l-26.823-36.684V75.42h-5.723V29.427h5.861l26.479,35.925V29.427h5.723V75.42H130.87z"/>
		<path fill="#FEFEFE" d="M145.973,52.458c0-14.343,10.551-23.79,23.652-23.79c8.205,0,13.859,3.586,17.859,8.551l-4.551,2.896
			c-2.896-3.724-7.792-6.344-13.308-6.344c-10.067,0-17.722,7.653-17.722,18.687c0,10.895,7.654,18.687,17.722,18.687
			c9.446,0,14.342-6.688,15.446-14.273h-18.894v-5.103h25.099c0,14.411-7.861,24.548-22.065,24.548
			C156.523,76.317,145.973,66.731,145.973,52.458z"/>
		<path fill="#FEFEFE" d="M197.691,75.42V29.427h5.723V75.42H197.691z"/>
		<path fill="#FEFEFE" d="M247.408,75.42l-26.823-36.684V75.42h-5.723V29.427h5.861l26.479,35.925V29.427h5.723V75.42H247.408z"/>
		<path fill="#FEFEFE" d="M264.373,75.42V29.427h30.133v5.104h-24.41v14.825h23.928v5.103h-23.928v15.86h24.41v5.103L264.373,75.42
			L264.373,75.42z"/>
		<path fill="#FEFEFE" d="M304.298,75.42V29.427h30.133v5.104h-24.409v14.825h23.927v5.103h-23.927v15.86h24.409v5.103
			L304.298,75.42L304.298,75.42z"/>
		<path fill="#FEFEFE" d="M370.84,75.42l-11.652-18.273h-9.241V75.42h-5.724V29.427h18.48c8.412,0,14.479,5.378,14.479,13.86
			c0,8.274-5.723,12.826-11.997,13.377l12.411,18.756H370.84z M371.254,43.287c0-5.241-3.793-8.757-9.24-8.757h-12.066v17.583
			h12.066C367.461,52.113,371.254,48.458,371.254,43.287z"/>
		<path fill="#FEFEFE" d="M386.908,75.42V29.427h30.133v5.104h-24.41v14.825h23.928v5.103h-23.928v15.86h24.41v5.103L386.908,75.42
			L386.908,75.42z"/>
		<path fill="#FEFEFE" d="M426.833,75.42V29.427h15.722c14.344,0,23.582,9.999,23.582,23.031c0,13.102-9.238,22.962-23.582,22.962
			H426.833z M460.208,52.458c0-9.93-6.275-17.928-17.652-17.928h-9.999v35.788h9.999C453.726,70.317,460.208,62.318,460.208,52.458z
			"/>
		<path fill="#FEFEFE" d="M494.342,75.42V29.427h20.479c7.999,0,12.895,4.827,12.895,11.722c0,5.792-3.86,9.653-8.066,10.55
			c4.896,0.758,8.964,5.792,8.964,11.308c0,7.378-4.896,12.412-13.31,12.412L494.342,75.42L494.342,75.42z M521.786,41.977
			c0-4.137-2.759-7.447-7.93-7.447h-13.792v14.825h13.792C519.027,49.355,521.786,46.183,521.786,41.977z M522.683,62.387
			c0-4.206-2.896-7.93-8.481-7.93h-14.136v15.86H514.2C519.511,70.317,522.683,67.283,522.683,62.387z"/>
		<path fill="#FEFEFE" d="M549.715,75.42V55.975l-18.136-26.547h6.688l14.273,21.375l14.273-21.375h6.688l-18.065,26.547V75.42
			H549.715z"/>
	</g>
</g>
</svg>
