<?xml version="1.0" encoding="utf-8"?>
<!-- Generator: Adobe Illustrator 15.1.0, SVG Export Plug-In . SVG Version: 6.00 Build 0)  -->
<!DOCTYPE svg PUBLIC "-//W3C//DTD SVG 1.1//EN" "http://www.w3.org/Graphics/SVG/1.1/DTD/svg11.dtd" [
	<!ENTITY ns_extend "http://ns.adobe.com/Extensibility/1.0/">
	<!ENTITY ns_ai "http://ns.adobe.com/AdobeIllustrator/10.0/">
	<!ENTITY ns_graphs "http://ns.adobe.com/Graphs/1.0/">
	<!ENTITY ns_vars "http://ns.adobe.com/Variables/1.0/">
	<!ENTITY ns_imrep "http://ns.adobe.com/ImageReplacement/1.0/">
	<!ENTITY ns_sfw "http://ns.adobe.com/SaveForWeb/1.0/">
	<!ENTITY ns_custom "http://ns.adobe.com/GenericCustomNamespace/1.0/">
	<!ENTITY ns_adobe_xpath "http://ns.adobe.com/XPath/1.0/">
]>
<svg version="1.1" id="Layer_1" xmlns:x="&ns_extend;" xmlns:i="&ns_ai;" xmlns:graph="&ns_graphs;"
	 xmlns="http://www.w3.org/2000/svg" xmlns:xlink="http://www.w3.org/1999/xlink" x="0px" y="0px" width="423px" height="113.104px"
	 viewBox="0 0 423 113.104" enable-background="new 0 0 423 113.104" xml:space="preserve">
<metadata>
	<sfw  xmlns="&ns_sfw;">
		<slices></slices>
		<sliceSourceBounds  width="413.317" height="110.514" x="240" y="581.586" bottomLeftOrigin="true"></sliceSourceBounds>
	</sfw>
</metadata>
<path id="Path_5624" d="M18.195,2.892H3.786v65.395h16.01l-0.359-39.414L44.46,68.286H58.97V2.892H42.955l0.365,39.855L18.195,2.892
	z M118.842,48.854c1.537-8.487-1.02-17.202-6.897-23.515c-4.834-5.066-11.563-7.881-18.565-7.768
	c-14.452,0.075-26.106,11.851-26.032,26.302c0.075,14.452,11.851,26.106,26.304,26.033c5.005,0.025,9.892-1.526,13.965-4.437
	c4.454-3.152,7.919-7.502,9.992-12.55H102.58c-1.921,3.04-5.339,4.8-8.928,4.595c-5.432,0.423-10.313-3.306-11.33-8.658
	L118.842,48.854z M82.5,37.715c2.124-6.059,8.757-9.247,14.814-7.122c3.333,1.168,5.953,3.789,7.123,7.122H82.5z M125.129,43.736
	c0.022,14.372,11.694,26.007,26.067,25.985c14.373-0.023,26.008-11.695,25.984-26.068c-0.022-14.375-11.694-26.009-26.067-25.985
	c-14.34,0.023-25.961,11.643-25.984,25.985V43.736z M139.805,43.736c0.022-6.817,5.569-12.325,12.386-12.301
	c6.815,0.022,12.324,5.567,12.3,12.384s-5.568,12.324-12.384,12.302c-6.786-0.023-12.28-5.518-12.302-12.302V43.736z"/>
<path id="Path_5625" fill="#E82629" d="M183.208,46.647c-0.443,12.817,6.453,22.909,23.608,22.909
	c17.338,0,22.815-10.537,22.815-20.965c0-7.604-3.095-13.267-15.295-18.74c-11.769-5.296-13.532-6.096-13.532-9.1
	c0.179-2.997,2.748-5.285,5.745-5.118c5.132,0,5.663,4.157,6.021,6.368h16.537C228.85,6.272,216.106,1.679,207.09,1.679
	c-10.97,0-22.906,6.976-22.906,20.139c0,12.289,11.409,16.88,16.007,18.738c10.083,4.241,12.829,5.304,12.829,8.755
	c-0.023,3.488-2.874,6.299-6.366,6.273c-2.128,0-6.815-1.328-6.815-8.927L183.208,46.647z M234.758,36.393
	c0.024,19.153,15.574,34.662,34.728,34.633c19.153-0.024,34.663-15.574,34.633-34.728c-0.023-19.152-15.57-34.661-34.727-34.634
	c-19.116,0.026-34.609,15.517-34.634,34.634V36.393z M251.475,35.43c0-9.191,6.284-19.097,17.864-19.097
	c12.024,0,17.764,10.871,17.764,19.352c0,8.396-5.748,19.174-17.593,19.174c-11.234,0-18.044-9.369-18.044-19.352L251.475,35.43z
	 M312.844,68.298h16.717v-24.92h18.311V28.706h-18.311V17.569h19.019V2.907h-35.735V68.298z M365.458,68.298h16.708V17.572h12.83
	V2.907h-42.447V17.58h12.909V68.298z"/>
<path id="Path_5626" d="M10.074,110.928H7.42V86.449H2v-2.661h13.523v2.661h-5.418L10.074,110.928z M31.717,95.957h11.398v2.681
	H31.717v9.662h11.398v2.628H29.033V83.785h14.083v2.661H31.717V95.957z M80.603,90.807c-1.054-1.541-2.452-2.817-4.086-3.723
	c-1.584-0.823-3.352-1.238-5.138-1.205c-2.944-0.033-5.762,1.188-7.755,3.351c-2.096,2.13-3.252,5.005-3.206,7.991
	c-0.076,3.079,1.071,6.063,3.194,8.294c1.988,2.182,4.816,3.407,7.768,3.369c1.766,0.023,3.51-0.38,5.088-1.173
	c1.579-0.841,2.935-2.043,3.953-3.511h3.167c-1.144,2.212-2.872,4.063-4.997,5.359c-2.12,1.28-4.554,1.938-7.027,1.902
	c-3.754,0.095-7.376-1.393-9.981-4.098c-2.665-2.705-4.109-6.387-4-10.184c-0.01-1.858,0.357-3.705,1.081-5.417
	c0.74-1.733,1.815-3.305,3.167-4.621c1.241-1.252,2.718-2.246,4.348-2.921c1.659-0.683,3.44-1.028,5.234-1.013
	c2.567-0.034,5.092,0.646,7.289,1.976c2.187,1.358,3.958,3.293,5.118,5.593L80.603,90.807z M101.132,110.928H98.44V83.785h2.691
	v12.172h12.89V83.785h2.668v27.143h-2.668V98.544h-12.89V110.928z M150.559,107.688l-0.322-23.902h2.658v27.143h-3.215
	L134.791,86.99l0.299,23.938h-2.625V83.785h3.205L150.559,107.688z M170.184,97.233c-0.084,3.087,1.077,6.084,3.218,8.309
	c2.057,2.2,4.952,3.417,7.961,3.354c2.977,0.051,5.83-1.185,7.827-3.393c2.119-2.258,3.26-5.26,3.176-8.353
	c0.038-2.992-1.143-5.869-3.273-7.967c-2.047-2.176-4.916-3.393-7.906-3.347c-1.232,0-2.455,0.218-3.611,0.646
	c-1.176,0.44-2.265,1.081-3.222,1.895c-1.296,1.095-2.336,2.464-3.043,4.011c-0.721,1.512-1.098,3.169-1.102,4.848 M167.408,97.198
	c-0.009-1.865,0.363-3.708,1.093-5.422c0.732-1.734,1.804-3.305,3.155-4.616c1.26-1.251,2.754-2.252,4.392-2.938
	c3.364-1.332,7.109-1.326,10.471,0.016c1.664,0.683,3.175,1.693,4.448,2.965c1.338,1.287,2.398,2.834,3.114,4.545
	c0.704,1.723,1.059,3.572,1.044,5.434c0.02,1.81-0.287,3.604-0.902,5.306c-0.604,1.62-1.511,3.107-2.678,4.378
	c-2.613,2.969-6.392,4.645-10.344,4.598c-3.707,0.086-7.277-1.411-9.815-4.115c-2.645-2.712-4.08-6.379-3.981-10.166
	 M221.834,110.916h-12.219V83.774h2.688v24.515h9.531V110.916z M237.528,97.221c-0.082,3.09,1.078,6.087,3.228,8.309
	c2.055,2.2,4.951,3.417,7.959,3.354c2.969,0.051,5.815-1.19,7.806-3.396c2.122-2.252,3.271-5.256,3.192-8.352
	c0.024-2.993-1.177-5.864-3.322-7.952c-2.043-2.176-4.91-3.387-7.894-3.347c-1.232,0-2.455,0.218-3.614,0.646
	c-1.175,0.437-2.264,1.077-3.215,1.894c-1.304,1.095-2.346,2.464-3.053,4.011c-0.726,1.512-1.104,3.169-1.11,4.848 M234.712,97.198
	c-0.006-1.865,0.364-3.705,1.09-5.422c0.738-1.731,1.812-3.299,3.157-4.616c1.262-1.251,2.752-2.252,4.391-2.938
	c1.646-0.671,3.409-1.007,5.192-0.995c5.597,0.015,10.65,3.366,12.841,8.521c0.706,1.726,1.062,3.572,1.053,5.434
	c0.012,1.81-0.294,3.604-0.905,5.306c-0.604,1.62-1.511,3.107-2.679,4.381c-1.309,1.455-2.901,2.626-4.684,3.428
	c-1.784,0.785-3.714,1.183-5.662,1.167c-3.711,0.083-7.28-1.414-9.826-4.115c-2.634-2.719-4.064-6.383-3.968-10.166 M286.375,97.904
	h16.861c-0.104,3.678-1.634,7.168-4.269,9.737c-2.563,2.528-6.045,3.904-9.649,3.821c-3.71,0.086-7.287-1.408-9.837-4.109
	c-2.634-2.722-4.063-6.385-3.963-10.172c-0.006-1.864,0.361-3.705,1.087-5.423c0.741-1.73,1.82-3.302,3.171-4.615
	c1.269-1.278,2.78-2.287,4.446-2.966c1.729-0.662,3.566-0.992,5.42-0.968c2.498-0.04,4.959,0.624,7.102,1.911
	c2.141,1.335,3.879,3.223,5.037,5.46h-3.283c-1.106-1.479-2.506-2.708-4.114-3.614c-1.509-0.787-3.19-1.188-4.89-1.16
	c-2.992-0.057-5.867,1.16-7.914,3.342c-2.116,2.144-3.275,5.046-3.225,8.057c-0.091,3.093,1.072,6.098,3.225,8.319
	c2.059,2.193,4.951,3.405,7.962,3.341c2.435,0.017,4.802-0.83,6.68-2.382c1.952-1.563,3.311-3.751,3.849-6.191h-13.7L286.375,97.904
	z M320.364,110.913h-2.665V83.768h2.665V110.913z M338.87,95.94h11.411v2.684H338.88v9.661h11.417v2.629h-14.098V83.768h14.098
	v2.664H338.88L338.87,95.94z M364.664,103.165h2.57c-0.024,1.466,0.481,2.89,1.426,4.012c0.901,0.999,2.202,1.552,3.548,1.505
	c1.414,0.064,2.788-0.485,3.77-1.505c0.965-1.106,1.465-2.546,1.387-4.018c0-2.458-1.909-4.318-5.718-5.571l-0.674-0.22
	c-1.639-0.47-3.12-1.371-4.297-2.605c-0.914-1.166-1.382-2.625-1.32-4.109c-0.067-1.973,0.667-3.891,2.033-5.315
	c1.374-1.389,3.268-2.142,5.22-2.063c1.812-0.091,3.575,0.593,4.851,1.885c1.279,1.467,1.987,3.348,1.99,5.294h-2.517
	c-0.044-1.258-0.515-2.464-1.325-3.422c-0.777-0.824-1.876-1.265-3.011-1.206c-1.229-0.04-2.423,0.436-3.281,1.311
	c-0.864,0.901-1.326,2.106-1.284,3.347c-0.051,1.287,0.556,2.511,1.606,3.251c1.024,0.625,2.13,1.101,3.286,1.411
	c0.926,0.301,1.637,0.536,2.106,0.728c1.493,0.49,2.816,1.399,3.812,2.616c0.828,1.238,1.237,2.708,1.169,4.195
	c0.103,2.317-0.665,4.586-2.152,6.368c-1.451,1.61-3.548,2.493-5.718,2.404c-2.046,0.07-4.019-0.765-5.389-2.281
	c-1.436-1.673-2.194-3.821-2.125-6.021"/>
<path id="Path_5627" d="M406.911,0.953c-4.644-0.001-8.407,3.762-8.41,8.405c-0.003,4.644,3.761,8.411,8.404,8.412
	c4.646,0.001,8.409-3.762,8.412-8.406c0-0.001,0-0.003,0-0.006c0.003-4.641-3.76-8.404-8.4-8.405
	C406.917,0.953,406.914,0.953,406.911,0.953 M406.911,16.403c-3.886-0.001-7.038-3.155-7.038-7.045c0-3.889,3.159-7.041,7.044-7.038
	c3.888,0.001,7.038,3.152,7.038,7.038C413.955,13.25,410.805,16.403,406.911,16.403L406.911,16.403"/>
<path id="Path_5628" d="M404.56,5.372c0.677-0.116,1.358-0.17,2.041-0.165c0.802-0.072,1.605,0.134,2.274,0.583
	c0.431,0.379,0.665,0.932,0.643,1.505c0,0.844-0.549,1.592-1.351,1.848V9.18c0.562,0.271,0.947,0.807,1.026,1.425
	c0.164,0.698,0.364,1.387,0.601,2.063h-1.386c-0.226-0.561-0.391-1.146-0.496-1.745c-0.225-0.962-0.559-1.278-1.329-1.295h-0.674
	v3.04h-1.332L404.56,5.372z M405.895,8.638h0.795c0.904,0,1.475-0.491,1.475-1.225c0-0.801-0.559-1.187-1.44-1.187
	c-0.276-0.006-0.553,0.017-0.829,0.063V8.638z"/>
</svg>
