<svg xmlns="http://www.w3.org/2000/svg" width="423" height="113.104" viewBox="0 0 423 113.104">
  <g id="Group_1" data-name="Group 1" transform="translate(-106 -224.777)">
    <g id="neosoft" transform="translate(105.992 224.777)">
      <path id="Path_5624" data-name="Path 5624" d="M652.728,595.6H637.982v66.927h16.385L654,622.19l25.61,40.337h14.847V595.6H678.07l.373,40.79Zm103.006,47.039a28,28,0,0,0-7.059-24.066,25.693,25.693,0,0,0-19-7.949,26.781,26.781,0,0,0,.277,53.561,24.34,24.34,0,0,0,14.293-4.542A29.421,29.421,0,0,0,754.471,646.8H739.09a10.127,10.127,0,0,1-9.138,4.7,10.938,10.938,0,0,1-11.594-8.861Zm-37.195-11.4a11.9,11.9,0,0,1,22.452,0Zm43.628,6.162a26.636,26.636,0,1,0,0-.086Zm15.02,0a12.65,12.65,0,1,1,0,.086Z" transform="translate(-636.147 -593.616)" fill="#fff" fill-rule="evenodd"/>
      <path id="Path_5625" data-name="Path 5625" d="M785.7,640.623c-.453,13.116,6.606,23.444,24.162,23.444,17.744,0,23.348-10.784,23.348-21.453,0-7.783-3.164-13.578-15.652-19.18-12.044-5.419-13.85-6.239-13.85-9.314a5.58,5.58,0,0,1,5.879-5.238c5.253,0,5.8,4.255,6.162,6.516h16.928c-.265-16.1-13.307-20.8-22.535-20.8-11.227,0-23.444,7.142-23.444,20.612,0,12.577,11.677,17.276,16.382,19.177,10.318,4.341,13.132,5.429,13.132,8.96a6.47,6.47,0,0,1-6.516,6.421c-2.178,0-6.976-1.359-6.976-9.136Zm52.757-10.494a35.494,35.494,0,1,0,0-.1Zm17.109-.986c0-9.406,6.43-19.543,18.283-19.543,12.306,0,18.178,11.126,18.178,19.805,0,8.593-5.882,19.623-18.006,19.623-11.5,0-18.465-9.588-18.465-19.805Zm62.808,33.639h17.109V637.277h18.736V622.263H935.483v-11.4h19.463v-15H918.374Zm53.845,0h17.1V610.866h13.131V595.858H959.006v15.017h13.215Z" transform="translate(-600.239 -593.859)" fill="#fff" fill-rule="evenodd"/>
      <path id="Path_5626" data-name="Path 5626" d="M644.763,690.1h-2.718V665.052H636.5v-2.724h13.84v2.724h-5.546Zm22.15-15.322h11.665v2.745H666.913v9.887h11.665v2.69H664.165V662.325h14.413v2.724H666.913Zm50.03-5.269a12.268,12.268,0,0,0-4.181-3.811,10.943,10.943,0,0,0-5.259-1.233,10.621,10.621,0,0,0-7.937,3.429,11.4,11.4,0,0,0-3.281,8.177,11.893,11.893,0,0,0,3.269,8.489,10.562,10.562,0,0,0,7.949,3.448,11.234,11.234,0,0,0,5.207-1.2,11.48,11.48,0,0,0,4.045-3.592H720a13.917,13.917,0,0,1-5.114,5.487,13.559,13.559,0,0,1-7.191,1.947,13.7,13.7,0,0,1-10.214-4.194,14.27,14.27,0,0,1-4.095-10.423,14.1,14.1,0,0,1,1.106-5.546,14.547,14.547,0,0,1,3.241-4.726,13.555,13.555,0,0,1,4.449-2.992,13.792,13.792,0,0,1,5.358-1.036,14.015,14.015,0,0,1,7.46,2.022,14.362,14.362,0,0,1,5.238,5.725Zm21.01,20.591H735.2V662.325h2.754v12.457h13.193V662.325h2.73V690.1h-2.73V677.432H737.953Zm50.585-3.315-.33-24.464h2.721V690.1h-3.29l-15.239-24.5.308,24.5h-2.687V662.325H773.3Zm20.085-10.7a11.8,11.8,0,0,0,3.293,8.5,10.84,10.84,0,0,0,8.146,3.432,10.553,10.553,0,0,0,8.011-3.472,12.017,12.017,0,0,0,3.251-8.55,11.246,11.246,0,0,0-3.349-8.152,10.885,10.885,0,0,0-8.091-3.423,10.639,10.639,0,0,0-3.7.659,11.114,11.114,0,0,0-3.3,1.938,11.818,11.818,0,0,0-3.115,4.1,11.617,11.617,0,0,0-1.128,4.964m-2.865-.04a13.938,13.938,0,0,1,1.119-5.546,14.386,14.386,0,0,1,3.229-4.726,14.147,14.147,0,0,1,4.5-3.007,14.5,14.5,0,0,1,10.716.015,14.61,14.61,0,0,1,7.74,7.687,14.432,14.432,0,0,1,1.069,5.561,15.467,15.467,0,0,1-.924,5.429,13.737,13.737,0,0,1-2.739,4.483,13.9,13.9,0,0,1-10.587,4.7,13.365,13.365,0,0,1-10.047-4.211,14.372,14.372,0,0,1-4.073-10.405m55.705,14.056H848.979V662.313h2.748V687.4h9.758Zm16.058-14.016a11.794,11.794,0,0,0,3.3,8.5,10.849,10.849,0,0,0,8.146,3.432,10.534,10.534,0,0,0,7.989-3.473,12.017,12.017,0,0,0,3.266-8.55,11.228,11.228,0,0,0-3.4-8.14,10.87,10.87,0,0,0-8.079-3.423,10.588,10.588,0,0,0-3.7.659,10.894,10.894,0,0,0-3.294,1.938,11.705,11.705,0,0,0-3.121,4.1,11.5,11.5,0,0,0-1.137,4.964m-2.859-.04a14.02,14.02,0,0,1,1.115-5.546,14.6,14.6,0,0,1,3.232-4.726,14.111,14.111,0,0,1,4.492-3.007,13.809,13.809,0,0,1,5.312-1.017,14.318,14.318,0,0,1,13.144,8.719,14.5,14.5,0,0,1,1.075,5.561,15.759,15.759,0,0,1-.925,5.429,13.787,13.787,0,0,1-2.742,4.483,14.381,14.381,0,0,1-4.794,3.509,14.109,14.109,0,0,1-5.793,1.193,13.4,13.4,0,0,1-10.057-4.212,14.425,14.425,0,0,1-4.063-10.4m52.877.743h17.254a14.481,14.481,0,0,1-4.366,9.964,13.626,13.626,0,0,1-9.875,3.91,13.408,13.408,0,0,1-10.069-4.206,14.416,14.416,0,0,1-4.054-10.411,14.059,14.059,0,0,1,1.109-5.546,14.652,14.652,0,0,1,3.247-4.727,13.654,13.654,0,0,1,4.551-3.035,15.05,15.05,0,0,1,5.546-.992,13.71,13.71,0,0,1,7.268,1.96,14.349,14.349,0,0,1,5.154,5.586h-3.361a13.57,13.57,0,0,0-4.209-3.7,10.459,10.459,0,0,0-5-1.189,10.819,10.819,0,0,0-8.1,3.423,11.447,11.447,0,0,0-3.3,8.242,11.747,11.747,0,0,0,3.3,8.516,10.866,10.866,0,0,0,8.146,3.42,10.655,10.655,0,0,0,6.84-2.437,11.218,11.218,0,0,0,3.938-6.341H927.531Zm34.785,13.313h-2.73V662.31h2.73Zm18.936-15.322h11.683v2.745H981.271V687.4h11.683v2.69H978.529V662.31h14.426v2.724H981.271Zm26.4,7.395h2.628a6.214,6.214,0,0,0,1.461,4.1,4.682,4.682,0,0,0,3.632,1.541,5.038,5.038,0,0,0,3.854-1.541,5.793,5.793,0,0,0,1.423-4.11c0-2.517-1.959-4.421-5.854-5.7l-.69-.225a9.777,9.777,0,0,1-4.4-2.665,6.383,6.383,0,0,1-1.353-4.206,7.484,7.484,0,0,1,2.083-5.441,7.116,7.116,0,0,1,5.339-2.114,6.533,6.533,0,0,1,4.967,1.929,8.291,8.291,0,0,1,2.037,5.419h-2.576a5.756,5.756,0,0,0-1.356-3.5,3.955,3.955,0,0,0-3.081-1.233,4.492,4.492,0,0,0-3.362,1.343,4.72,4.72,0,0,0-1.312,3.423,3.878,3.878,0,0,0,1.645,3.327,12.852,12.852,0,0,0,3.362,1.442c.946.308,1.676.551,2.156.746a8.454,8.454,0,0,1,3.9,2.677,7.113,7.113,0,0,1,1.2,4.292,9.492,9.492,0,0,1-2.2,6.516,7.484,7.484,0,0,1-5.854,2.465,7.1,7.1,0,0,1-5.515-2.339,9.025,9.025,0,0,1-2.175-6.162" transform="translate(-636.492 -577.553)" fill="#fff" fill-rule="evenodd"/>
      <path id="Path_5627" data-name="Path 5627" d="M971.55,594a8.605,8.605,0,1,0,8.6,8.6,8.606,8.606,0,0,0-8.6-8.6m0,15.812a7.206,7.206,0,1,1,7.21-7.209,7.206,7.206,0,0,1-7.21,7.209" transform="translate(-557.145 -594)" fill="#fff" fill-rule="evenodd"/>
      <path id="Path_5628" data-name="Path 5628" d="M967.929,597.682a11.608,11.608,0,0,1,2.086-.169,3.6,3.6,0,0,1,2.329.6,1.947,1.947,0,0,1,.656,1.541,1.984,1.984,0,0,1-1.38,1.892v.037a1.876,1.876,0,0,1,1.048,1.457,21.378,21.378,0,0,0,.616,2.114h-1.417a8.86,8.86,0,0,1-.509-1.787c-.227-.986-.573-1.306-1.358-1.325h-.69v3.112h-1.365Zm1.365,3.343h.813c.924,0,1.51-.5,1.51-1.254,0-.82-.57-1.214-1.473-1.214a4.556,4.556,0,0,0-.85.065Z" transform="translate(-555.93 -593.159)" fill="#fff"/>
    </g>
  </g>
</svg>
