<?xml version="1.0" encoding="utf-8"?>
<!-- Generator: Adobe Illustrator 25.3.0, SVG Export Plug-In . SVG Version: 6.00 Build 0)  -->
<svg version="1.1" id="Layer_1" xmlns="http://www.w3.org/2000/svg" xmlns:xlink="http://www.w3.org/1999/xlink" x="0px" y="0px"
	 viewBox="0 0 990.9 442.2" style="enable-background:new 0 0 990.9 442.2;" xml:space="preserve">
<style type="text/css">
	.st0{fill:#E82629;}
	.st1{fill:#252627;}
	.st2{fill:#FEFEFE;}
</style>
<g id="neosoft-logo-red" transform="translate(707.249 672.259)">
	<path id="Path_5624" d="M-668.7-488H-703v155.7h38.1l-0.9-93.8l59.6,93.8h34.5V-488h-38.1l0.9,94.9L-668.7-488z M-429.1-380.6
		c3.7-20.2-2.4-40.9-16.4-56c-11.5-12.1-27.5-18.8-44.2-18.5c-34.4,0-62.3,27.9-62.2,62.3s27.9,62.3,62.3,62.2c0.2,0,0.4,0,0.6,0
		c11.9,0.1,23.5-3.6,33.2-10.6c10.6-7.5,18.8-17.9,23.8-29.9h-35.8c-4.6,7.2-12.7,11.4-21.3,10.9c-12.9,1-24.5-7.9-27-20.6
		L-429.1-380.6z M-515.6-407.1c5.1-14.4,20.8-22,35.3-17c7.9,2.8,14.2,9,17,17H-515.6z M-414.2-392.8c0.1,34.2,27.8,61.9,62,61.9
		c34.2-0.1,61.9-27.8,61.8-62c-0.1-34.2-27.8-61.9-62-61.8c-34.1,0.1-61.8,27.7-61.8,61.8V-392.8z M-379.2-392.8
		c0.1-16.3,13.3-29.4,29.5-29.4c16.3,0.1,29.4,13.3,29.4,29.5c-0.1,16.3-13.3,29.4-29.6,29.4c-16.2-0.1-29.3-13.2-29.4-29.4V-392.8z
		"/>
	<path id="Path_5625" class="st0" d="M-268.8-384.4c-1.1,30.5,15.4,54.5,56.2,54.5c41.3,0,54.3-25.1,54.3-49.9
		c0-18.1-7.4-31.6-36.4-44.6c-28-12.6-32.2-14.5-32.2-21.7c0.4-7.1,6.5-12.6,13.7-12.2c12.2,0,13.5,9.9,14.3,15.2h39.4
		c-0.6-37.4-30.9-48.4-52.4-48.4c-26.1,0-54.5,16.6-54.5,47.9c0,29.2,27.2,40.2,38.1,44.6c24,10.1,30.5,12.6,30.5,20.8
		c-0.1,8.3-6.8,15-15.2,14.9c-5.1,0-16.2-3.2-16.2-21.2L-268.8-384.4z M-146.1-412.8c0.1,45.6,37.1,82.5,82.7,82.4
		c45.6-0.1,82.5-37.1,82.4-82.7C19-458.6-18-495.5-63.6-495.4c-45.5,0.1-82.4,36.9-82.4,82.4L-146.1-412.8L-146.1-412.8z
		 M-106.3-411.1c0-21.9,15-45.5,42.5-45.5c28.6,0,42.3,25.9,42.3,46.1c0,20-13.7,45.6-41.9,45.6c-26.7,0-42.9-22.3-42.9-46.1
		L-106.3-411.1z M39.8-332.8h39.8v-59.3h43.6v-34.9H79.6v-26.5h45.3v-34.9H39.8L39.8-332.8z M165-332.8h39.8v-120.7h30.5v-34.9h-101
		v34.9H165L165-332.8z"/>
	<path id="Path_5626" d="M-680.9-231.4h-6.3v-58.3h-12.9v-6.3h32.2v6.3h-12.9L-680.9-231.4z M-629.4-267h27.1v6.4h-27.1v23h27.1v6.3
		h-33.5V-296h33.5v6.3h-27.1V-267z M-513-279.2c-2.5-3.7-5.8-6.7-9.7-8.9c-3.8-2-8-2.9-12.2-2.9c-7-0.1-13.7,2.8-18.5,8
		c-5,5.1-7.7,11.9-7.6,19c-0.2,7.3,2.6,14.4,7.6,19.7c4.7,5.2,11.5,8.1,18.5,8c4.2,0.1,8.4-0.9,12.1-2.8c3.8-2,7-4.9,9.4-8.4h7.5
		c-2.7,5.3-6.8,9.7-11.9,12.8c-5,3-10.8,4.6-16.7,4.5c-8.9,0.2-17.6-3.3-23.8-9.8c-6.3-6.4-9.8-15.2-9.5-24.2
		c0-4.4,0.9-8.8,2.6-12.9c1.8-4.1,4.3-7.9,7.5-11c3-3,6.5-5.4,10.3-7c4-1.6,8.2-2.4,12.5-2.4c6.1-0.1,12.1,1.5,17.3,4.7
		c5.2,3.2,9.4,7.8,12.2,13.3L-513-279.2z M-464.1-231.4h-6.4V-296h6.4v29h30.7v-29h6.3v64.6h-6.3v-29.5h-30.7L-464.1-231.4z
		 M-346.5-239.1l-0.8-56.9h6.3v64.6h-7.7l-35.4-57l0.7,57h-6.2V-296h7.6L-346.5-239.1z M-299.8-264c-0.2,7.4,2.6,14.5,7.7,19.8
		c4.9,5.2,11.8,8.1,18.9,8c7.1,0.1,13.9-2.8,18.6-8.1c5-5.4,7.8-12.5,7.6-19.9c0.1-7.1-2.7-14-7.8-19c-4.9-5.2-11.7-8.1-18.8-8
		c-2.9,0-5.8,0.5-8.6,1.5c-2.8,1-5.4,2.6-7.7,4.5c-3.1,2.6-5.6,5.9-7.2,9.5C-298.8-271.9-299.7-267.9-299.8-264 M-306.4-264
		c0-4.4,0.9-8.8,2.6-12.9c1.7-4.1,4.3-7.9,7.5-11c3-3,6.6-5.4,10.5-7c8-3.2,16.9-3.2,24.9,0c8.1,3.4,14.5,9.8,18,17.9
		c1.7,4.1,2.5,8.5,2.5,12.9c0,4.3-0.7,8.6-2.1,12.6c-1.4,3.9-3.6,7.4-6.4,10.4c-6.2,7.1-15.2,11.1-24.6,10.9
		c-8.8,0.2-17.3-3.4-23.4-9.8C-303.2-246.3-306.6-255.1-306.4-264 M-176.8-231.4h-29.1V-296h6.4v58.4h22.7L-176.8-231.4
		L-176.8-231.4z M-139.5-264c-0.2,7.4,2.6,14.5,7.7,19.8c4.9,5.2,11.8,8.1,18.9,8c7.1,0.1,13.8-2.8,18.6-8.1
		c5.1-5.4,7.8-12.5,7.6-19.9c0.1-7.1-2.8-14-7.9-18.9c-4.9-5.2-11.7-8.1-18.8-8c-2.9,0-5.8,0.5-8.6,1.5c-2.8,1-5.4,2.6-7.7,4.5
		c-3.1,2.6-5.6,5.9-7.3,9.5C-138.6-271.9-139.5-267.9-139.5-264 M-146.2-264c0-4.4,0.9-8.8,2.6-12.9c1.8-4.1,4.3-7.9,7.5-11
		c3-3,6.5-5.4,10.4-7c3.9-1.6,8.1-2.4,12.4-2.4c13.3,0,25.4,8,30.6,20.3c1.7,4.1,2.5,8.5,2.5,12.9c0,4.3-0.7,8.6-2.2,12.6
		c-1.4,3.9-3.6,7.4-6.4,10.4c-3.1,3.5-6.9,6.2-11.1,8.2c-4.2,1.9-8.8,2.8-13.5,2.8c-8.8,0.2-17.3-3.4-23.4-9.8
		C-143-246.4-146.4-255.1-146.2-264 M-23.2-262.4h40.1c-0.2,8.8-3.9,17.1-10.2,23.2c-6.1,6-14.4,9.3-23,9.1
		c-8.8,0.2-17.4-3.3-23.4-9.8c-6.3-6.5-9.7-15.2-9.4-24.2c0-4.4,0.9-8.8,2.6-12.9c1.8-4.1,4.3-7.9,7.6-11c3-3,6.6-5.4,10.6-7.1
		c4.1-1.6,8.5-2.4,12.9-2.3c5.9-0.1,11.8,1.5,16.9,4.6c5.1,3.2,9.2,7.7,12,13H5.6c-2.6-3.5-6-6.4-9.8-8.6c-3.6-1.9-7.6-2.8-11.6-2.8
		c-7.1-0.1-14,2.8-18.8,8c-5,5.1-7.8,12-7.7,19.2c-0.2,7.4,2.5,14.5,7.7,19.8c4.9,5.2,11.8,8.1,18.9,8c5.8,0,11.4-2,15.9-5.7
		c4.6-3.7,7.9-8.9,9.2-14.7h-32.6L-23.2-262.4z M57.7-231.4h-6.3V-296h6.3V-231.4z M101.7-267h27.2v6.4h-27.1v23h27.2v6.3H95.4V-296
		h33.5v6.3h-27.2L101.7-267z M163.1-249.8h6.1c-0.1,3.5,1.1,6.9,3.4,9.5c2.2,2.4,5.2,3.7,8.4,3.6c3.4,0.1,6.6-1.2,9-3.6
		c2.3-2.6,3.5-6.1,3.3-9.6c0-5.9-4.6-10.3-13.6-13.3l-1.6-0.5c-3.9-1.1-7.4-3.3-10.2-6.2c-2.2-2.8-3.3-6.2-3.1-9.8
		c-0.2-4.7,1.6-9.3,4.8-12.7c3.3-3.3,7.8-5.1,12.4-4.9c4.3-0.2,8.5,1.4,11.6,4.5c3,3.5,4.7,8,4.7,12.6h-6c-0.1-3-1.2-5.9-3.2-8.1
		c-1.9-2-4.5-3-7.2-2.9c-2.9-0.1-5.8,1-7.8,3.1c-2.1,2.1-3.1,5-3.1,8c-0.1,3.1,1.3,6,3.8,7.7c2.4,1.5,5.1,2.6,7.8,3.4
		c2.2,0.7,3.9,1.3,5,1.7c3.6,1.2,6.7,3.3,9.1,6.2c2,2.9,2.9,6.4,2.8,10c0.2,5.5-1.6,10.9-5.1,15.2c-3.5,3.8-8.4,5.9-13.6,5.7
		c-4.9,0.2-9.6-1.8-12.8-5.4C164.7-239.5,162.9-244.6,163.1-249.8"/>
	<path id="Path_5627" d="M263.7-493.1c-11.1,0-20,9-20,20s9,20,20,20s20-9,20-20c0,0,0,0,0,0C283.7-484.2,274.7-493.1,263.7-493.1
		 M263.7-456.3c-9.3,0-16.8-7.5-16.8-16.8s7.5-16.8,16.8-16.8c9.3,0,16.7,7.5,16.8,16.8C280.5-463.9,273-456.3,263.7-456.3
		C263.7-456.3,263.7-456.3,263.7-456.3"/>
	<path id="Path_5628" d="M258.1-482.6c1.6-0.3,3.2-0.4,4.9-0.4c1.9-0.2,3.8,0.3,5.4,1.4c1,0.9,1.6,2.2,1.5,3.6c0,2-1.3,3.8-3.2,4.4
		v0.1c1.3,0.6,2.3,1.9,2.4,3.4c0.4,1.7,0.9,3.3,1.4,4.9h-3.3c-0.5-1.3-0.9-2.7-1.2-4.2c-0.5-2.3-1.3-3-3.2-3.1h-1.6v7.2h-3.2
		L258.1-482.6z M261.3-474.8h1.9c2.1,0,3.5-1.2,3.5-2.9c0-1.9-1.3-2.8-3.4-2.8c-0.7,0-1.3,0-2,0.1L261.3-474.8L261.3-474.8z"/>
</g>
<g>
	<path class="st1" d="M628,51.3c0,25-20.4,45.4-45.4,45.4H49.3c-25,0-45.4-20.4-45.4-45.4v0c0-25,20.4-45.4,45.4-45.4h533.2
		C607.5,5.9,628,26.4,628,51.3L628,51.3z"/>
</g>
<g>
	<path class="st2" d="M58.4,75.4v-46h30.1v5.1H64.1v14.8H88v5.1H64.1v15.9h24.4v5.1L58.4,75.4L58.4,75.4z"/>
	<path class="st2" d="M130.9,75.4L104,38.7v36.7h-5.7v-46h5.9l26.5,35.9V29.4h5.7v46H130.9z"/>
	<path class="st2" d="M146,52.5c0-14.3,10.6-23.8,23.7-23.8c8.2,0,13.9,3.6,17.9,8.6l-4.6,2.9c-2.9-3.7-7.8-6.3-13.3-6.3
		c-10.1,0-17.7,7.7-17.7,18.7c0,10.9,7.7,18.7,17.7,18.7c9.4,0,14.3-6.7,15.4-14.3h-18.9v-5.1h25.1c0,14.4-7.9,24.5-22.1,24.5
		C156.5,76.3,146,66.7,146,52.5z"/>
	<path class="st2" d="M197.7,75.4v-46h5.7v46H197.7z"/>
	<path class="st2" d="M247.4,75.4l-26.8-36.7v36.7h-5.7v-46h5.9l26.5,35.9V29.4h5.7v46H247.4z"/>
	<path class="st2" d="M264.4,75.4v-46h30.1v5.1h-24.4v14.8H294v5.1h-23.9v15.9h24.4v5.1L264.4,75.4L264.4,75.4z"/>
	<path class="st2" d="M304.3,75.4v-46h30.1v5.1H310v14.8h23.9v5.1H310v15.9h24.4v5.1L304.3,75.4L304.3,75.4z"/>
	<path class="st2" d="M370.8,75.4l-11.7-18.3h-9.2v18.3h-5.7v-46h18.5c8.4,0,14.5,5.4,14.5,13.9c0,8.3-5.7,12.8-12,13.4l12.4,18.8
		H370.8z M371.3,43.3c0-5.2-3.8-8.8-9.2-8.8h-12.1v17.6H362C367.5,52.1,371.3,48.5,371.3,43.3z"/>
	<path class="st2" d="M386.9,75.4v-46H417v5.1h-24.4v14.8h23.9v5.1h-23.9v15.9H417v5.1L386.9,75.4L386.9,75.4z"/>
	<path class="st2" d="M426.8,75.4v-46h15.7c14.3,0,23.6,10,23.6,23c0,13.1-9.2,23-23.6,23H426.8z M460.2,52.5
		c0-9.9-6.3-17.9-17.7-17.9h-10v35.8h10C453.7,70.3,460.2,62.3,460.2,52.5z"/>
	<path class="st2" d="M494.3,75.4v-46h20.5c8,0,12.9,4.8,12.9,11.7c0,5.8-3.9,9.7-8.1,10.5c4.9,0.8,9,5.8,9,11.3
		c0,7.4-4.9,12.4-13.3,12.4L494.3,75.4L494.3,75.4z M521.8,42c0-4.1-2.8-7.4-7.9-7.4h-13.8v14.8h13.8C519,49.4,521.8,46.2,521.8,42z
		 M522.7,62.4c0-4.2-2.9-7.9-8.5-7.9h-14.1v15.9h14.1C519.5,70.3,522.7,67.3,522.7,62.4z"/>
	<path class="st2" d="M549.7,75.4V56l-18.1-26.5h6.7l14.3,21.4l14.3-21.4h6.7L555.4,56v19.4H549.7z"/>
</g>
</svg>
