<svg xmlns="http://www.w3.org/2000/svg" width="252" height="67.381" viewBox="0 0 252 67.381">
  <g id="Group_1" data-name="Group 1" transform="translate(-370 -385)">
    <g id="neosoft-logo-black" transform="translate(369.992 385)">
      <path id="Path_5624" data-name="Path 5624" d="M646.767,595.6h-8.785v39.871h9.761l-.218-24.031,15.257,24.031h8.845V595.6h-9.763l.222,24.3Zm61.365,28.023a16.683,16.683,0,0,0-4.205-14.337,15.307,15.307,0,0,0-11.32-4.736,15.955,15.955,0,1,0,.165,31.909,14.5,14.5,0,0,0,8.515-2.706,17.526,17.526,0,0,0,6.092-7.651h-9.163a6.033,6.033,0,0,1-5.444,2.8,6.516,6.516,0,0,1-6.907-5.279Zm-22.159-6.792a7.087,7.087,0,0,1,13.375,0Zm25.991,3.671a15.868,15.868,0,1,0,0-.051Zm8.948,0a7.543,7.543,0,1,1,0,.051Z" transform="translate(-636.885 -594.418)" fill="#535353" fill-rule="evenodd"/>
      <path id="Path_5625" data-name="Path 5625" d="M785.691,622.013c-.27,7.814,3.935,13.967,14.394,13.967,10.571,0,13.91-6.424,13.91-12.781,0-4.637-1.885-8.089-9.324-11.426-7.175-3.229-8.251-3.717-8.251-5.549a3.324,3.324,0,0,1,3.5-3.12c3.13,0,3.453,2.535,3.671,3.882h10.084c-.158-9.589-7.927-12.39-13.425-12.39-6.689,0-13.967,4.255-13.967,12.28,0,7.493,6.957,10.292,9.76,11.424,6.147,2.586,7.823,3.234,7.823,5.338a3.855,3.855,0,0,1-3.882,3.825c-1.3,0-4.156-.81-4.156-5.443Zm31.43-6.252a21.145,21.145,0,1,0,0-.057Zm10.193-.587c0-5.6,3.831-11.643,10.892-11.643,7.331,0,10.83,6.628,10.83,11.8,0,5.119-3.5,11.691-10.727,11.691-6.849,0-11-5.712-11-11.8Zm37.417,20.04h10.193V620.02h11.162v-8.944H874.924v-6.792h11.6v-8.939H864.731Zm32.078,0H907V604.286h7.823v-8.941H888.938v8.946h7.873Z" transform="translate(-675.201 -594.153)" fill="#535353" fill-rule="evenodd"/>
      <path id="Path_5626" data-name="Path 5626" d="M641.423,678.635H639.8V663.71h-3.3v-1.623h8.245v1.623h-3.3Zm13.2-9.128h6.949v1.635h-6.949v5.89h6.949v1.6h-8.587V662.086h8.587v1.623h-6.949Zm29.805-3.139a7.309,7.309,0,0,0-2.491-2.271,6.522,6.522,0,0,0-3.133-.734,6.328,6.328,0,0,0-4.728,2.043,6.792,6.792,0,0,0-1.955,4.871,7.085,7.085,0,0,0,1.948,5.057,6.292,6.292,0,0,0,4.736,2.054,6.693,6.693,0,0,0,3.1-.716,6.84,6.84,0,0,0,2.41-2.14h1.931A8.292,8.292,0,0,1,683.2,677.8a8.078,8.078,0,0,1-4.284,1.16,8.162,8.162,0,0,1-6.085-2.5,8.5,8.5,0,0,1-2.439-6.209,8.4,8.4,0,0,1,.659-3.3,8.667,8.667,0,0,1,1.931-2.816,8.077,8.077,0,0,1,2.651-1.782,8.214,8.214,0,0,1,3.192-.617,8.349,8.349,0,0,1,4.444,1.2,8.557,8.557,0,0,1,3.12,3.41Zm12.516,12.267H695.3V662.086h1.641v7.421h7.86v-7.421h1.626v16.549H704.8v-7.55h-7.86Zm30.136-1.975-.2-14.574H728.5v16.549h-1.96l-9.078-14.594.183,14.594h-1.6V662.086H718Zm11.966-6.375A7.032,7.032,0,0,0,741,675.351a6.458,6.458,0,0,0,4.853,2.045,6.287,6.287,0,0,0,4.772-2.069,7.159,7.159,0,0,0,1.936-5.094,6.7,6.7,0,0,0-2-4.857,6.486,6.486,0,0,0-4.82-2.039,6.338,6.338,0,0,0-2.2.393,6.621,6.621,0,0,0-1.964,1.155,7.043,7.043,0,0,0-1.856,2.445,6.922,6.922,0,0,0-.672,2.957m-1.707-.024a8.305,8.305,0,0,1,.666-3.3,8.572,8.572,0,0,1,1.924-2.816,8.428,8.428,0,0,1,2.678-1.792,8.639,8.639,0,0,1,6.384.009,8.7,8.7,0,0,1,4.611,4.58,8.6,8.6,0,0,1,.637,3.313,9.218,9.218,0,0,1-.55,3.234,8.186,8.186,0,0,1-1.632,2.671,8.279,8.279,0,0,1-6.307,2.8,7.962,7.962,0,0,1-5.986-2.509,8.561,8.561,0,0,1-2.427-6.2m33.186,8.374h-7.45V662.078h1.637v14.947h5.813Zm9.567-8.35a7.026,7.026,0,0,0,1.968,5.066,6.463,6.463,0,0,0,4.853,2.045,6.276,6.276,0,0,0,4.76-2.069,7.159,7.159,0,0,0,1.946-5.094,6.689,6.689,0,0,0-2.024-4.849,6.476,6.476,0,0,0-4.813-2.039,6.308,6.308,0,0,0-2.2.393,6.492,6.492,0,0,0-1.962,1.154,6.975,6.975,0,0,0-1.859,2.445,6.853,6.853,0,0,0-.677,2.957m-1.7-.024a8.351,8.351,0,0,1,.664-3.3,8.693,8.693,0,0,1,1.925-2.816,8.4,8.4,0,0,1,2.676-1.791,8.228,8.228,0,0,1,3.165-.606,8.53,8.53,0,0,1,7.83,5.195,8.64,8.64,0,0,1,.641,3.313,9.389,9.389,0,0,1-.551,3.234,8.213,8.213,0,0,1-1.634,2.671,8.568,8.568,0,0,1-2.856,2.091,8.4,8.4,0,0,1-3.451.71,7.984,7.984,0,0,1-5.991-2.509,8.594,8.594,0,0,1-2.421-6.2m31.5.442h10.279a8.628,8.628,0,0,1-2.6,5.936,8.117,8.117,0,0,1-5.883,2.329,7.988,7.988,0,0,1-6-2.505,8.589,8.589,0,0,1-2.415-6.2,8.377,8.377,0,0,1,.661-3.3,8.73,8.73,0,0,1,1.935-2.816,8.132,8.132,0,0,1,2.711-1.808,8.963,8.963,0,0,1,3.3-.591,8.165,8.165,0,0,1,4.33,1.167,8.548,8.548,0,0,1,3.071,3.328h-2a8.084,8.084,0,0,0-2.507-2.2,6.23,6.23,0,0,0-2.981-.708,6.445,6.445,0,0,0-4.826,2.039,6.819,6.819,0,0,0-1.966,4.91,7,7,0,0,0,1.966,5.073,6.473,6.473,0,0,0,4.853,2.037,6.346,6.346,0,0,0,4.075-1.452,6.683,6.683,0,0,0,2.346-3.777H809.88Zm20.723,7.931h-1.626V662.077h1.626Zm11.281-9.128h6.96v1.635H841.9v5.89h6.96v1.6h-8.594V662.077h8.594V663.7H841.9Zm15.729,4.405h1.566a3.7,3.7,0,0,0,.87,2.445,2.79,2.79,0,0,0,2.164.918,3,3,0,0,0,2.3-.918,3.451,3.451,0,0,0,.848-2.449c0-1.5-1.167-2.634-3.487-3.4l-.411-.134a5.825,5.825,0,0,1-2.619-1.588,3.8,3.8,0,0,1-.806-2.506,4.458,4.458,0,0,1,1.241-3.241,4.239,4.239,0,0,1,3.181-1.259,3.891,3.891,0,0,1,2.959,1.149,4.937,4.937,0,0,1,1.213,3.229H865.1a3.43,3.43,0,0,0-.808-2.087,2.356,2.356,0,0,0-1.836-.734,2.676,2.676,0,0,0-2,.8,2.812,2.812,0,0,0-.782,2.04,2.311,2.311,0,0,0,.98,1.982,7.66,7.66,0,0,0,2,.859c.563.183,1,.328,1.285.444a5.038,5.038,0,0,1,2.324,1.6,4.237,4.237,0,0,1,.712,2.557,5.656,5.656,0,0,1-1.311,3.882,4.458,4.458,0,0,1-3.487,1.468,4.231,4.231,0,0,1-3.286-1.393,5.376,5.376,0,0,1-1.3-3.671" transform="translate(-636.492 -611.583)" fill="#535353" fill-rule="evenodd"/>
      <path id="Path_5627" data-name="Path 5627" d="M968.071,594a5.127,5.127,0,1,0,5.125,5.125A5.127,5.127,0,0,0,968.071,594m0,9.42a4.293,4.293,0,1,1,4.3-4.294,4.293,4.293,0,0,1-4.3,4.294" transform="translate(-721.187 -594)" fill="#535353" fill-rule="evenodd"/>
      <path id="Path_5628" data-name="Path 5628" d="M967.929,597.608a6.916,6.916,0,0,1,1.243-.1,2.147,2.147,0,0,1,1.387.356,1.16,1.16,0,0,1,.391.918,1.182,1.182,0,0,1-.822,1.127v.022a1.118,1.118,0,0,1,.624.868,12.716,12.716,0,0,0,.367,1.259h-.844a5.265,5.265,0,0,1-.3-1.065c-.135-.587-.341-.778-.809-.789h-.411v1.854h-.813Zm.813,1.992h.484c.551,0,.9-.3.9-.747,0-.488-.34-.723-.877-.723a2.731,2.731,0,0,0-.507.039Z" transform="translate(-722.479 -594.913)" fill="#535353"/>
    </g>
  </g>
</svg>
